<?xml version="1.0" encoding="UTF-8"?>
<svg version="1.1" xmlns="http://www.w3.org/2000/svg" width="375" height="375">
<path d="M0 0 C9.58879645 4.09713522 14.83052341 10.02534435 18.859375 19.46484375 C20.60780677 24.30495235 20.66261741 28.93712497 20.58203125 34.0390625 C20.57187988 34.96783203 20.56172852 35.89660156 20.55126953 36.85351562 C20.12415225 55.80560345 10.93661128 75.71615996 -1.79296875 89.7890625 C-2.60378906 90.4284375 -3.41460937 91.0678125 -4.25 91.7265625 C-6.75932065 93.76177187 -8.42125059 95.71567506 -10.35546875 98.2890625 C-24.83392001 116.28405553 -40.9831301 131.5872973 -62.79296875 139.7890625 C-63.66308594 140.11777344 -64.53320312 140.44648438 -65.4296875 140.78515625 C-72.020228 143.12373514 -78.44404614 143.91506819 -85.44322205 143.90931702 C-86.74021027 143.91069168 -88.03719849 143.91206635 -89.37348938 143.91348267 C-90.79318261 143.90994442 -92.2128756 143.90630963 -93.63256836 143.90258789 C-95.14097085 143.90230555 -96.64937347 143.90246468 -98.15777588 143.9030304 C-102.23782188 143.90331652 -106.31783831 143.89744963 -110.39787745 143.89045644 C-114.6673141 143.88419217 -118.93675148 143.88361667 -123.20619202 143.88243103 C-131.28434756 143.87932677 -139.36248951 143.87112559 -147.44063908 143.86108154 C-156.64014083 143.84989228 -165.83964325 143.84440287 -175.03915012 143.83938611 C-193.95709735 143.82894221 -212.87503196 143.81136032 -231.79296875 143.7890625 C-232.12296875 142.7990625 -232.45296875 141.8090625 -232.79296875 140.7890625 C-227.9588692 138.55313532 -223.08636657 136.48906062 -218.10546875 134.6015625 C-211.95729257 132.26800092 -205.87429073 129.79129713 -199.79296875 127.2890625 C-192.95438924 124.47765284 -186.10522356 121.71982581 -179.19140625 119.09765625 C-174.70779951 117.37120998 -170.25127662 115.57964365 -165.79296875 113.7890625 C-157.15563972 110.32254903 -148.49265993 106.93291521 -139.78125 103.65625 C-138.75386719 103.26695312 -137.72648438 102.87765625 -136.66796875 102.4765625 C-135.59546875 102.07308594 -134.52296875 101.66960937 -133.41796875 101.25390625 C-130.69068216 100.15182384 -128.06942572 98.99254851 -125.41796875 97.73046875 C-113.93092227 92.3652184 -104.40090517 90.7312677 -91.79296875 90.7890625 C-82.65090771 90.67418843 -76.09116121 89.66816198 -68.79296875 83.7890625 C-68.46296875 83.1290625 -68.13296875 82.4690625 -67.79296875 81.7890625 C-67.13296875 81.7890625 -66.47296875 81.7890625 -65.79296875 81.7890625 C-65.46296875 80.7990625 -65.13296875 79.8090625 -64.79296875 78.7890625 C-64.02984375 78.0465625 -63.26671875 77.3040625 -62.48046875 76.5390625 C-57.13889862 71.07326981 -55.32475466 66.36701166 -54.79296875 58.7890625 C-64.80705846 57.64338275 -72.77272588 61.03279422 -81.79296875 64.7890625 C-84.28994606 65.79672593 -86.79181546 66.7917672 -89.29296875 67.7890625 C-89.90712646 68.0368042 -90.52128418 68.2845459 -91.15405273 68.53979492 C-96.26697114 70.59978621 -101.4189547 72.54315724 -106.58618164 74.4621582 C-112.55698939 76.68481476 -118.49160189 78.99630713 -124.4152832 81.34155273 C-127.89956873 82.71019323 -131.3855528 84.00475536 -134.9453125 85.1640625 C-141.34710694 87.26395045 -147.62396103 89.70204193 -153.91796875 92.1015625 C-155.21964356 92.59635845 -156.52132 93.09115009 -157.82299805 93.5859375 C-165.49563278 96.50707299 -173.14695696 99.47242664 -180.75 102.5703125 C-187.31458343 105.19951665 -193.9691829 107.59793715 -200.60546875 110.0390625 C-202.28906482 110.65884787 -203.9726585 111.27863972 -205.65625 111.8984375 C-206.93556396 112.36926758 -206.93556396 112.36926758 -208.24072266 112.84960938 C-210.68927778 113.75089502 -213.13765483 114.65266207 -215.5859375 115.5546875 C-216.36356445 115.84118164 -217.14119141 116.12767578 -217.94238281 116.42285156 C-219.51601705 117.00274918 -221.08958423 117.58282882 -222.66308594 118.16308594 C-226.63296842 119.62670476 -230.60414248 121.08660958 -234.578125 122.5390625 C-242.37277247 125.39250998 -250.13541461 128.30167494 -257.85546875 131.3515625 C-264.55453131 133.99209563 -271.30923489 136.36032439 -278.15966797 138.5769043 C-281.89192935 139.79216401 -285.57845301 141.0658667 -289.234375 142.49609375 C-289.94899902 142.77509521 -290.66362305 143.05409668 -291.39990234 143.34155273 C-292.73905037 143.87095777 -294.07441283 144.4100949 -295.40478516 144.96118164 C-300.40230732 146.93668369 -305.13872652 147.87798239 -310.23046875 145.7890625 C-310.74609375 145.4590625 -311.26171875 145.1290625 -311.79296875 144.7890625 C-312.56576837 137.92697433 -310.01351877 133.68330919 -306.60546875 127.8515625 C-306.12271484 126.99626953 -305.63996094 126.14097656 -305.14257812 125.25976562 C-287.10760844 93.52306058 -287.10760844 93.52306058 -271.91796875 89.2265625 C-267.18442228 87.84480472 -262.5422441 86.37323099 -257.93652344 84.6081543 C-241.89172941 78.47714246 -225.64789415 72.81664165 -209.3984375 67.25390625 C-206.63408815 66.30736883 -203.86976175 65.36076448 -201.10546875 64.4140625 C-200.06573914 64.05809998 -200.06573914 64.05809998 -199.00500488 63.69494629 C-188.31395321 60.03195377 -177.67106967 56.25480434 -167.06640625 52.34765625 C-163.66129582 51.09643361 -160.23827811 49.9258397 -156.79296875 48.7890625 C-150.12388282 46.49430035 -143.46811264 44.16072046 -136.80859375 41.83837891 C-134.06533326 40.88383441 -131.32023168 39.93487174 -128.57421875 38.98828125 C-119.12766318 35.72222956 -109.7636551 32.28782479 -100.43481445 28.69921875 C-94.42773928 26.39400296 -88.3923846 24.19806512 -82.31787109 22.07788086 C-76.43952523 20.02480749 -70.5821698 17.91686285 -64.73046875 15.7890625 C-63.32148315 15.27690186 -63.32148315 15.27690186 -61.8840332 14.75439453 C-56.42173007 12.76316318 -50.977336 10.73007147 -45.54296875 8.6640625 C-38.94104312 6.15592977 -32.26679356 3.89653194 -25.55371094 1.70458984 C-16.58199629 -1.22931684 -9.44927043 -3.01675987 0 0 Z " fill="#429D6A" transform="translate(323.79296875,179.2109375)"/>
<path d="M0 0 C1.15404616 4.31761772 0.82981523 7.88168152 0.2578125 12.29296875 C0.17021164 12.99279373 0.08261078 13.69261871 -0.00764465 14.41365051 C-0.19436883 15.90417492 -0.38431875 17.39429822 -0.57723999 18.8840332 C-2.00812435 29.95333235 -3.38639826 40.98435855 -3.75927734 52.14916992 C-3.91838157 56.83676313 -3.91838157 56.83676313 -5 59 C-7.6875 58.875 -7.6875 58.875 -11 58 C-12.73223664 56.05651499 -14.39881603 54.05279996 -16 52 C-19.22180859 49.63694526 -19.22180859 49.63694526 -23 49 C-23.28875 49.598125 -23.5775 50.19625 -23.875 50.8125 C-25 53 -25 53 -27 56 C-27.66 56 -28.32 56 -29 56 C-29.33 56.99 -29.66 57.98 -30 59 C-31.62078666 60.71131708 -33.29732898 62.37013284 -35 64 C-36.01997439 65.02562429 -37.0367872 66.0544003 -38.05078125 67.0859375 C-43.22670183 72.31306582 -48.3766623 77.50494912 -53.98828125 82.26953125 C-56.48283603 84.41533274 -58.89218982 86.64585677 -61.3125 88.875 C-75.55373513 101.84682141 -75.55373513 101.84682141 -80.25390625 104.0625 C-82.35989595 104.93595603 -82.35989595 104.93595603 -83 108 C-85.28034235 109.83061617 -87.5419668 111.52320984 -89.9375 113.1875 C-90.58396484 113.65091797 -91.23042969 114.11433594 -91.89648438 114.59179688 C-96.73020987 118 -96.73020987 118 -99 118 C-99.33 118.99 -99.66 119.98 -100 121 C-101.62831153 122.0613102 -103.30395232 123.05068443 -105 124 C-107.00850085 125.38357328 -109.00782253 126.78052466 -111 128.1875 C-116.57096234 132.08677314 -122.25943755 135.70472536 -128.078125 139.2265625 C-130.43402778 140.6564821 -132.75106174 142.12543055 -135.0625 143.625 C-139.11520154 146.16638159 -143.3750593 148.23369725 -147.671875 150.328125 C-150.01342336 151.50439577 -152.2957613 152.70438416 -154.578125 153.984375 C-162.04239045 158.15491646 -169.18679498 161.3112408 -177.37890625 163.8515625 C-180.84539605 164.95096703 -184.18701343 166.21230537 -187.5625 167.5625 C-207.27402787 175.20672666 -228.32411492 179.16994666 -249 173 C-260.18698126 167.7729556 -266.53198459 160.22146893 -271.0546875 148.9296875 C-275.44607103 135.3200278 -273.61242733 120.47970621 -267.9375 107.5859375 C-266.73789065 105.29501686 -265.42047583 103.16143651 -264 101 C-263.33871094 99.98164063 -262.67742187 98.96328125 -261.99609375 97.9140625 C-257.28203491 90.81165852 -252.24579288 83.8496538 -246 78 C-245.34 78 -244.68 78 -244 78 C-243.505 76.515 -243.505 76.515 -243 75 C-242.34 75 -241.68 75 -241 75 C-240.731875 74.401875 -240.46375 73.80375 -240.1875 73.1875 C-239.00082594 71.00152146 -237.90400887 69.58667406 -236 68 C-235.34 68 -234.68 68 -234 68 C-233.79632813 67.44183594 -233.59265625 66.88367188 -233.3828125 66.30859375 C-231.48043859 63.13259663 -228.80327987 61.23037504 -225.875 59.0625 C-225.28388428 58.61938477 -224.69276855 58.17626953 -224.08374023 57.71972656 C-222.39814798 56.46689968 -220.70254927 55.22964851 -219 54 C-218.29230469 53.48824219 -217.58460938 52.97648437 -216.85546875 52.44921875 C-197.66511282 39.61383908 -176.36471241 39.54991854 -154.1640625 39.671875 C-151.70690019 39.67493925 -149.24973613 39.6768103 -146.79257202 39.67755127 C-141.68098143 39.68212167 -136.56955125 39.69643108 -131.45800781 39.71875 C-124.89978095 39.74724041 -118.34167867 39.7579862 -111.78339577 39.7624321 C-106.72721105 39.76657925 -101.67105151 39.77638744 -96.61487961 39.78830719 C-94.19469783 39.79400643 -91.77451365 39.79876628 -89.35432816 39.80257416 C-85.98959287 39.80942355 -82.62495744 39.82304431 -79.26025391 39.83886719 C-78.25981552 39.83998505 -77.25937714 39.84110291 -76.22862244 39.84225464 C-75.31509506 39.84796478 -74.40156769 39.85367493 -73.46035767 39.85955811 C-72.26979735 39.8640201 -72.26979735 39.8640201 -71.05518532 39.86857224 C-69 40 -69 40 -66 41 C-66.42184742 45.92155321 -68.38328445 47.76804142 -72 51 C-72.57862793 51.51739746 -73.15725586 52.03479492 -73.75341797 52.56787109 C-78.38125548 56.66547222 -83.13381345 60.52160859 -88.0625 64.25 C-89.15788086 65.08253296 -89.15788086 65.08253296 -90.27539062 65.93188477 C-97.45498285 71.37320277 -104.68519057 76.74183802 -112 82 C-112.80566406 82.58394531 -113.61132812 83.16789062 -114.44140625 83.76953125 C-116.58496433 85.26567952 -118.77285183 86.63121802 -121 88 C-121.90274658 88.58740967 -122.80549316 89.17481934 -123.7355957 89.7800293 C-134.51554623 96.05396545 -144.39726355 95.83318237 -156.625 95.5625 C-172.29703016 95.24623032 -182.49388707 95.59727238 -195 106 C-199.45671174 110.60461147 -201.64663975 114.59875538 -202.08984375 121.01953125 C-202.08060239 123.21304313 -202.08060239 123.21304313 -201 126 C-192.57800312 131.24831184 -182.72588964 129.62658659 -173.4375 127.5625 C-144.93878056 120.0903385 -117.42670923 103.45864367 -94 86 C-93.29681641 85.47631836 -92.59363281 84.95263672 -91.86914062 84.41308594 C-82.18631158 77.15308572 -73.05222028 69.54985425 -64.33203125 61.15625 C-62.05137804 58.96188813 -59.71173552 56.87699128 -57.29296875 54.8359375 C-54.81918662 52.73964028 -52.5924778 50.61248636 -50.5 48.125 C-49.93152344 47.45726562 -49.36304688 46.78953125 -48.77734375 46.1015625 C-47.89755859 45.06128906 -47.89755859 45.06128906 -47 44 C-45.69004271 42.49777892 -44.37762069 40.99770284 -43.0625 39.5 C-41.5465625 37.7675 -41.5465625 37.7675 -40 36 C-44.29 33.69 -48.58 31.38 -53 29 C-52 25 -52 25 -50.50048828 23.81494141 C-49.54505127 23.33806885 -49.54505127 23.33806885 -48.5703125 22.8515625 C-47.86253662 22.48893311 -47.15476074 22.12630371 -46.42553711 21.75268555 C-45.66635986 21.38054932 -44.90718262 21.00841309 -44.125 20.625 C-42.56611084 19.83261216 -41.00751704 19.03964296 -39.44921875 18.24609375 C-38.30525635 17.67157471 -38.30525635 17.67157471 -37.13818359 17.08544922 C-34.37024578 15.68030518 -31.65231867 14.19232896 -28.9375 12.6875 C-25.38477414 10.74043553 -21.8157743 8.85667233 -18.17578125 7.078125 C-16.43301015 6.21456158 -14.70423234 5.3227812 -12.98046875 4.421875 C-11.38138672 3.59429687 -11.38138672 3.59429687 -9.75 2.75 C-8.75484375 2.22921875 -7.7596875 1.7084375 -6.734375 1.171875 C-4 0 -4 0 0 0 Z " fill="#1082B5" transform="translate(329,30)"/>
<path d="M0 0 C1.11052734 0.00837891 2.22105469 0.01675781 3.36523438 0.02539062 C4.51958984 0.05439453 5.67394531 0.08339844 6.86328125 0.11328125 C8.02923828 0.12294922 9.19519531 0.13261719 10.39648438 0.14257812 C19.00793241 0.25793241 19.00793241 0.25793241 20.17578125 1.42578125 C20.26890014 2.92996864 20.29324153 4.43849481 20.28930664 5.94555664 C20.28923111 6.9064772 20.28915558 7.86739777 20.28907776 8.85743713 C20.28391647 9.90221725 20.27875519 10.94699738 20.2734375 12.0234375 C20.27202255 13.08743271 20.2706076 14.15142792 20.26914978 15.24766541 C20.26353189 18.66123208 20.25097636 22.07473425 20.23828125 25.48828125 C20.23326856 27.79622301 20.22870525 30.1041658 20.22460938 32.41210938 C20.21355665 38.08335551 20.19680112 43.75456378 20.17578125 49.42578125 C19.64001968 49.62666351 19.10425812 49.82754578 18.55226135 50.03451538 C17.48720619 50.43387802 17.48720619 50.43387802 16.40063477 50.84130859 C15.34949242 51.23544449 15.34949242 51.23544449 14.27711487 51.63754272 C12.37722862 52.35021563 10.477658 53.06372983 8.578125 53.77734375 C6.86302734 54.40769531 6.86302734 54.40769531 5.11328125 55.05078125 C3.39431641 55.68886719 3.39431641 55.68886719 1.640625 56.33984375 C-1.87200702 57.44075886 -5.16107318 58.08736331 -8.82421875 58.42578125 C-10.48285395 56.76714605 -9.97699249 54.79262213 -10.0012207 52.51049805 C-10.01405594 51.46238449 -10.02689117 50.41427094 -10.04011536 49.33439636 C-10.04750229 48.19279556 -10.05488922 47.05119476 -10.0625 45.875 C-10.07057175 44.70951126 -10.07864349 43.54402252 -10.08695984 42.34321594 C-10.10082065 39.87083432 -10.11153382 37.3984334 -10.11938477 34.92602539 C-10.13659833 31.13976864 -10.18046826 27.35438448 -10.22460938 23.56835938 C-10.23473555 21.17057936 -10.24325189 18.7727919 -10.25 16.375 C-10.27626213 14.67170784 -10.27626213 14.67170784 -10.30305481 12.93400574 C-10.30012924 11.8764357 -10.29720367 10.81886566 -10.29418945 9.72924805 C-10.30298882 8.33478706 -10.30298882 8.33478706 -10.31196594 6.91215515 C-9.1807277 1.14547664 -5.34896282 -0.07646807 0 0 Z " fill="#65B669" transform="translate(282.82421875,120.57421875)"/>
<path d="M0 0 C0.91523438 -0.00128906 1.83046875 -0.00257813 2.7734375 -0.00390625 C3.72734375 -0.00003906 4.68125 0.00382813 5.6640625 0.0078125 C7.08332031 0.00201172 7.08332031 0.00201172 8.53125 -0.00390625 C9.4490625 -0.00261719 10.366875 -0.00132812 11.3125 0 C12.14700684 0.00112793 12.98151367 0.00225586 13.84130859 0.00341797 C16.2890625 0.1328125 16.2890625 0.1328125 21.2890625 1.1328125 C21.2890625 12.3528125 21.2890625 23.5728125 21.2890625 35.1328125 C7.49515829 40.88027259 7.49515829 40.88027259 2.8515625 42.4453125 C1.90410156 42.77144531 0.95664063 43.09757812 -0.01953125 43.43359375 C-2.72440903 44.13631236 -4.93042258 44.34368047 -7.7109375 44.1328125 C-9.60267444 42.24107556 -8.83989699 39.48877485 -8.84988403 36.97218323 C-8.8478598 36.10866745 -8.84583557 35.24515167 -8.84375 34.35546875 C-8.84470673 33.47378525 -8.84566345 32.59210175 -8.84664917 31.68370056 C-8.84733109 29.81493051 -8.84547601 27.94615811 -8.84130859 26.07739258 C-8.83596682 23.21104622 -8.84124992 20.34485703 -8.84765625 17.47851562 C-8.84699535 15.66666632 -8.84571393 13.85481711 -8.84375 12.04296875 C-8.84678635 10.75073143 -8.84678635 10.75073143 -8.84988403 9.43238831 C-8.82589189 3.36272128 -8.82589189 3.36272128 -7.7109375 1.1328125 C-4.8300498 0.1725166 -2.99322577 0.00405665 0 0 Z " fill="#449E69" transform="translate(242.7109375,148.8671875)"/>
<path d="M0 0 C0.97195312 -0.00128906 1.94390625 -0.00257813 2.9453125 -0.00390625 C3.94820312 -0.00003906 4.95109375 0.00382813 5.984375 0.0078125 C7.00273437 0.00394531 8.02109375 0.00007812 9.0703125 -0.00390625 C10.03710938 -0.00261719 11.00390625 -0.00132812 12 0 C12.88461914 0.00112793 13.76923828 0.00225586 14.68066406 0.00341797 C16.734375 0.1328125 16.734375 0.1328125 17.734375 1.1328125 C17.82151331 2.84053608 17.84137507 4.55179899 17.83203125 6.26171875 C17.82880859 7.29619141 17.82558594 8.33066406 17.82226562 9.39648438 C17.81388672 10.48509766 17.80550781 11.57371094 17.796875 12.6953125 C17.79236328 13.78779297 17.78785156 14.88027344 17.78320312 16.00585938 C17.77137326 18.71489745 17.75489043 21.42382849 17.734375 24.1328125 C7.30677802 29.53004294 7.30677802 29.53004294 2.359375 30.8203125 C-0.03390551 31.45566221 -2.06721439 32.02419641 -4.2421875 33.21484375 C-6.70514298 34.33220772 -8.58844638 34.19752521 -11.265625 34.1328125 C-11.29035564 29.91528732 -11.30849953 25.69780064 -11.32055664 21.48022461 C-11.32558342 20.04564682 -11.33240579 18.61107414 -11.34106445 17.17651367 C-11.35320252 15.11375668 -11.35886986 13.05106746 -11.36328125 10.98828125 C-11.36851807 9.74715576 -11.37375488 8.50603027 -11.37915039 7.22729492 C-11.265625 4.1328125 -11.265625 4.1328125 -10.265625 1.1328125 C-6.78468234 0.34439386 -3.56653652 0.00452442 0 0 Z " fill="#3A956D" transform="translate(207.265625,172.8671875)"/>
<path d="M0 0 C0.97001953 0.00644531 1.94003906 0.01289063 2.93945312 0.01953125 C3.93009766 0.03628906 4.92074219 0.05304688 5.94140625 0.0703125 C6.95912109 0.07933594 7.97683594 0.08835938 9.02539062 0.09765625 C11.5183318 0.12106415 14.01115067 0.15692961 16.50390625 0.1953125 C16.50390625 6.1353125 16.50390625 12.0753125 16.50390625 18.1953125 C12.79940883 19.54021918 9.09093839 20.87150345 5.37890625 22.1953125 C4.3321875 22.576875 3.28546875 22.9584375 2.20703125 23.3515625 C1.18867188 23.7125 0.1703125 24.0734375 -0.87890625 24.4453125 C-1.81105957 24.78046875 -2.74321289 25.115625 -3.70361328 25.4609375 C-6.49609375 26.1953125 -6.49609375 26.1953125 -12.49609375 26.1953125 C-12.49609375 18.2753125 -12.49609375 10.3553125 -12.49609375 2.1953125 C-4.62109375 -0.0546875 -4.62109375 -0.0546875 0 0 Z " fill="#489E6F" transform="translate(168.49609375,194.8046875)"/>
<path d="M0 0 C-0.33 0.99 -0.66 1.98 -1 3 C-2.7421875 3.84375 -2.7421875 3.84375 -4.875 4.5 C-7.3352167 5.26257639 -8.72173571 5.70587609 -10.5078125 7.59375 C-12 9 -12 9 -16 9 C-16.66 9.66 -17.32 10.32 -18 11 C-18.66 10.67 -19.32 10.34 -20 10 C-22.78903597 10.62291282 -22.78903597 10.62291282 -25.875 11.6875 C-26.92429688 12.02136719 -27.97359375 12.35523438 -29.0546875 12.69921875 C-32.12561483 14.05547711 -33.81162544 15.48918378 -36 18 C-36.66 17.67 -37.32 17.34 -38 17 C-38 17.66 -38 18.32 -38 19 C-38.66 19.33 -39.32 19.66 -40 20 C-40.103125 20.94875 -40.20625 21.8975 -40.3125 22.875 C-40.539375 23.90625 -40.76625 24.9375 -41 26 C-42.64333504 27.03789581 -44.31243867 28.03567924 -46 29 C-48.06289344 32.5145592 -49.54614986 36.1976227 -51 40 C-51.66 40 -52.32 40 -53 40 C-53 40.99 -53 41.98 -53 43 C-53.99 43.66 -54.98 44.32 -56 45 C-57.32481546 47.39529669 -57.32481546 47.39529669 -58 50 C-57.67 50.99 -57.34 51.98 -57 53 C-57.66 53.433125 -58.32 53.86625 -59 54.3125 C-59.66 54.869375 -60.32 55.42625 -61 56 C-61 56.99 -61 57.98 -61 59 C-59.2709226 59.02725341 -57.54171824 59.04650987 -55.8125 59.0625 C-54.36810547 59.07990234 -54.36810547 59.07990234 -52.89453125 59.09765625 C-50.14423487 59.00486622 -47.67520409 58.62111685 -45 58 C-45 58.66 -45 59.32 -45 60 C-51.3933099 63.81139628 -55.38576221 65.4079056 -63 65 C-65.4375 64 -65.4375 64 -67 63 C-67.77279962 56.13791183 -65.22055002 51.89424669 -61.8125 46.0625 C-61.08836914 44.77956055 -61.08836914 44.77956055 -60.34960938 43.47070312 C-42.321954 11.74686931 -42.321954 11.74686931 -27.125 7.4375 C-25.70394691 7.01463111 -24.2833666 6.59016996 -22.86328125 6.1640625 C-22.19248535 5.96458008 -21.52168945 5.76509766 -20.83056641 5.55957031 C-16.56786302 4.25654068 -12.43556607 2.64942275 -8.375 0.8125 C-5.49102508 -0.174123 -3.02642793 -0.14076409 0 0 Z " fill="#166984" transform="translate(79,261)"/>
<path d="M0 0 C9.58879645 4.09713522 14.83052341 10.02534435 18.859375 19.46484375 C20.60792247 24.30527263 20.66173108 28.93688343 20.58203125 34.0390625 C20.56897949 35.42677856 20.56897949 35.42677856 20.55566406 36.8425293 C20.33496605 47.16558849 18.241792 55.76121564 13.20703125 64.7890625 C12.21703125 64.2940625 12.21703125 64.2940625 11.20703125 63.7890625 C10.58805431 56.67082765 13.05747551 51.08817398 16.20703125 44.7890625 C16.86703125 44.7890625 17.52703125 44.7890625 18.20703125 44.7890625 C18.43180134 38.22078104 18.13472214 32.27571341 16.546875 25.8828125 C16.20703125 23.7890625 16.20703125 23.7890625 17.20703125 20.7890625 C14.15789897 19.77795157 14.15789897 19.77795157 11.20703125 20.7890625 C10.08203125 14.1640625 10.08203125 14.1640625 11.20703125 10.7890625 C9.55703125 10.7890625 7.90703125 10.7890625 6.20703125 10.7890625 C5.71203125 8.8090625 5.71203125 8.8090625 5.20703125 6.7890625 C4.21703125 7.1190625 3.22703125 7.4490625 2.20703125 7.7890625 C2.20703125 6.7990625 2.20703125 5.8090625 2.20703125 4.7890625 C-1.79069778 4.42145523 -5.79032606 4.09812731 -9.79296875 3.7890625 C-10.92734375 3.6859375 -12.06171875 3.5828125 -13.23046875 3.4765625 C-19.94189397 4.06528401 -28.20830989 5.51816489 -32.79296875 10.7890625 C-36.08619131 12.10635153 -38.39658009 11.53461123 -41.79296875 10.7890625 C-43.45922405 10.7520346 -45.12698194 10.74146288 -46.79296875 10.7890625 C-45.294335 7.79179501 -43.20863132 7.71276163 -40.078125 6.66015625 C-38.91732422 6.26505859 -37.75652344 5.86996094 -36.56054688 5.46289062 C-34.7265332 4.8509082 -34.7265332 4.8509082 -32.85546875 4.2265625 C-30.45017772 3.4137751 -28.0452127 2.60002208 -25.640625 1.78515625 C-24.03199585 1.24652954 -24.03199585 1.24652954 -22.39086914 0.69702148 C-14.76612142 -1.96780671 -7.93434089 -2.53310574 0 0 Z " fill="#86B888" transform="translate(323.79296875,179.2109375)"/>
<path d="M0 0 C0 0.66 0 1.32 0 2 C0.66 2 1.32 2 2 2 C2 2.66 2 3.32 2 4 C3.32 3.67 4.64 3.34 6 3 C5.67 4.32 5.34 5.64 5 7 C6.06250977 6.83773926 7.12501953 6.67547852 8.21972656 6.50830078 C13.9669384 5.79481582 19.70087335 5.85691403 25.484375 5.8671875 C26.69401917 5.86623077 27.90366333 5.86527405 29.14996338 5.86428833 C31.71521049 5.86360905 34.28045934 5.86544574 36.84570312 5.86962891 C40.668011 5.87488721 44.49019623 5.86972445 48.3125 5.86328125 C65.23202779 5.85917895 82.09678956 6.27371524 99 7 C98.67 7.66 98.34 8.32 98 9 C59.39 9 20.78 9 -19 9 C-19.33 8.01 -19.66 7.02 -20 6 C-6.1082996 -0.35931174 -6.1082996 -0.35931174 0 0 Z " fill="#438869" transform="translate(111,314)"/>
<path d="M0 0 C2.45716349 0.00051969 4.9143274 -0.00000222 7.37149048 -0.00151062 C12.48307622 -0.00142154 17.59450213 0.00888668 22.70605469 0.02709961 C29.26432552 0.04995358 35.82236688 0.05029375 42.38066673 0.04358196 C47.43685966 0.04024863 52.49299994 0.04685727 57.54918289 0.0567112 C59.96936391 0.06056186 62.38955078 0.06171196 64.80973434 0.06012535 C68.17454076 0.05975594 71.53904714 0.07233451 74.90380859 0.08862305 C75.90424698 0.08614563 76.90468536 0.08366821 77.93544006 0.08111572 C79.30573112 0.09174294 79.30573112 0.09174294 80.70370483 0.10258484 C81.49741171 0.10463771 82.29111858 0.10669058 83.10887718 0.10880566 C85.1640625 0.36328125 85.1640625 0.36328125 88.1640625 2.36328125 C76.2840625 2.36328125 64.4040625 2.36328125 52.1640625 2.36328125 C52.1640625 2.69328125 52.1640625 3.02328125 52.1640625 3.36328125 C49.6444511 3.72927522 47.12412922 4.08128976 44.6015625 4.42578125 C43.89708984 4.52955078 43.19261719 4.63332031 42.46679688 4.74023438 C37.7994116 5.36398632 33.84261879 5.1806194 29.1640625 4.36328125 C24.01556822 3.9768062 24.01556822 3.9768062 19.1640625 5.36328125 C11.85971467 5.59516531 11.85971467 5.59516531 8.1640625 4.36328125 C6.9265625 4.52828125 5.6890625 4.69328125 4.4140625 4.86328125 C0.0770817 5.43020684 -3.97931684 5.21321062 -8.3359375 4.86328125 C-14.07732082 4.40834717 -19.15357391 4.52489974 -24.8359375 5.36328125 C-27.337326 5.36328125 -29.84090578 5.2914978 -32.3359375 5.11328125 C-35.90799356 5.02976082 -35.90799356 5.02976082 -38.2734375 7.36328125 C-38.7890625 8.02328125 -39.3046875 8.68328125 -39.8359375 9.36328125 C-40.1659375 9.03328125 -40.4959375 8.70328125 -40.8359375 8.36328125 C-43.02643771 8.45346121 -45.2144035 8.60994333 -47.3984375 8.80078125 C-48.59597656 8.90261719 -49.79351562 9.00445312 -51.02734375 9.109375 C-51.95417969 9.19316406 -52.88101563 9.27695313 -53.8359375 9.36328125 C-39.80158783 -2.42557247 -17.04811744 -0.07174927 0 0 Z " fill="#419BBF" transform="translate(174.8359375,69.63671875)"/>
<path d="M0 0 C-2 3 -2 3 -5.125 3.6875 C-6.07375 3.790625 -7.0225 3.89375 -8 4 C-8.33 6.64 -8.66 9.28 -9 12 C-10.32 12.33 -11.64 12.66 -13 13 C-12.34 13.66 -11.68 14.32 -11 15 C-11.66 15 -12.32 15 -13 15 C-12.67 15.66 -12.34 16.32 -12 17 C-10.68 17 -9.36 17 -8 17 C-7.75 23.625 -7.75 23.625 -10 27 C-10.99 27.66 -11.98 28.32 -13 29 C-16.48811399 32.29956729 -19.56672213 35.81268156 -22.5703125 39.546875 C-24 41 -24 41 -27 42 C-27.08733661 37.89517952 -26.75978016 35.9028157 -24.0703125 32.70703125 C-22.51287824 31.18278821 -20.93139768 29.68263523 -19.32421875 28.2109375 C-16.56076357 25.68194683 -16.56076357 25.68194683 -13 21 C-17.29 18.69 -21.58 16.38 -26 14 C-25 10 -25 10 -23.3894043 8.75146484 C-22.36713745 8.23640381 -22.36713745 8.23640381 -21.32421875 7.7109375 C-20.57849609 7.32679687 -19.83277344 6.94265625 -19.06445312 6.546875 C-18.28005859 6.16015625 -17.49566406 5.7734375 -16.6875 5.375 C-15.91470703 4.98054688 -15.14191406 4.58609375 -14.34570312 4.1796875 C-12.23688927 3.10624141 -10.12054139 2.05003967 -8 1 C-7.30237549 0.62053223 -6.60475098 0.24106445 -5.88598633 -0.14990234 C-3.52313491 -1.21494424 -2.39182294 -0.85422248 0 0 Z " fill="#0D5B84" transform="translate(302,45)"/>
<path d="M0 0 C0.99 0.495 0.99 0.495 2 1 C0.3472529 10.01498419 -7.24750232 21.25240246 -14.45703125 26.9375 C-16.9663519 28.97270937 -18.62828184 30.92661256 -20.5625 33.5 C-47.7609262 67.30440912 -47.7609262 67.30440912 -63 70 C-63 69.01 -63 68.02 -63 67 C-60.03 66.505 -60.03 66.505 -57 66 C-56.9175 65.21625 -56.835 64.4325 -56.75 63.625 C-56.5025 62.75875 -56.255 61.8925 -56 61 C-54.67171674 60.3233274 -53.33770623 59.65784822 -52 59 C-50.43747894 57.39317737 -50.43747894 57.39317737 -49.0625 55.5625 C-46.62626281 52.58624046 -44.33911483 50.93317175 -41 49 C-40.34 48.113125 -39.68 47.22625 -39 46.3125 C-37 44 -37 44 -34.25 43.6875 C-33.5075 43.790625 -32.765 43.89375 -32 44 C-31.67 42.68 -31.34 41.36 -31 40 C-30.34 40 -29.68 40 -29 40 C-28.62294922 39.21496094 -28.62294922 39.21496094 -28.23828125 38.4140625 C-26.65977466 35.33672159 -24.9500414 32.34908116 -23.1875 29.375 C-22.85685547 28.78976562 -22.52621094 28.20453125 -22.18554688 27.6015625 C-19.90297465 23.78121129 -18.19104447 22.35510438 -14 21 C-12.28288757 18.55503957 -12.28288757 18.55503957 -11 16 C-10.34 15.34 -9.68 14.68 -9 14 C-6.52682399 10.4099058 -4.22735411 6.74600464 -2 3 C-1.34 2.01 -0.68 1.02 0 0 Z " fill="#88B782" transform="translate(334,244)"/>
<path d="M0 0 C7.01283461 2.77251601 9.62891055 6.95717256 12.62109375 13.59765625 C14.38548891 18.47350632 14.45530814 23.10887827 14.375 28.25 C14.36629883 29.17514404 14.35759766 30.10028809 14.34863281 31.0534668 C14.1279348 41.37652599 12.03476075 49.97215314 7 59 C6.34 58.67 5.68 58.34 5 58 C4.38102306 50.88176515 6.85044426 45.29911148 10 39 C10.66 39 11.32 39 12 39 C12.22477009 32.43171854 11.92769089 26.48665091 10.33984375 20.09375 C10 18 10 18 11 15 C7.95086772 13.98888907 7.95086772 13.98888907 5 15 C3.875 8.375 3.875 8.375 5 5 C3.35 5 1.7 5 0 5 C-0.5625 3.0625 -0.5625 3.0625 -1 1 C-0.67 0.67 -0.34 0.34 0 0 Z " fill="#7EB67D" transform="translate(330,185)"/>
<path d="M0 0 C-0.33 0.99 -0.66 1.98 -1 3 C-2.7421875 3.84375 -2.7421875 3.84375 -4.875 4.5 C-7.3352167 5.26257639 -8.72173571 5.70587609 -10.5078125 7.59375 C-12 9 -12 9 -16 9 C-16.66 9.66 -17.32 10.32 -18 11 C-18.66 10.67 -19.32 10.34 -20 10 C-22.78903597 10.62291282 -22.78903597 10.62291282 -25.875 11.6875 C-26.92429687 12.02136719 -27.97359375 12.35523438 -29.0546875 12.69921875 C-32.12561483 14.05547711 -33.81162544 15.48918378 -36 18 C-36.66 17.67 -37.32 17.34 -38 17 C-38 17.66 -38 18.32 -38 19 C-38.66 19.33 -39.32 19.66 -40 20 C-41.13350534 22.01669827 -41.13350534 22.01669827 -42 24 C-44 21 -44 21 -44.125 18.6875 C-42.26276435 14.23882594 -39.19636399 12.23688038 -35 10 C-31.00895539 8.45144464 -26.90493812 7.27363503 -22.79296875 6.09375 C-17.83077129 4.66283827 -13.08305782 2.94233568 -8.375 0.8125 C-5.49102508 -0.174123 -3.02642793 -0.14076409 0 0 Z " fill="#177483" transform="translate(79,261)"/>
<path d="M0 0 C13.69978508 -0.0231798 27.39956548 -0.04094387 41.09936619 -0.05181217 C47.46086381 -0.05702864 53.822348 -0.0641039 60.18383789 -0.07543945 C66.32408213 -0.08631218 72.46431345 -0.09228615 78.60456657 -0.09487724 C80.94608704 -0.09672358 83.28760681 -0.10032898 85.62912178 -0.10573006 C88.91104784 -0.11299863 92.19292069 -0.11398848 95.47485352 -0.11352539 C96.44086487 -0.11712067 97.40687622 -0.12071594 98.40216064 -0.12442017 C103.37869096 -0.11683183 108.09449589 0.14926315 113 1 C112.45773019 4.79588866 110.79872437 6.47211993 108 9 C107.01 8.505 107.01 8.505 106 8 C106 6.35 106 4.7 106 3 C102.9166866 2.97088679 99.83340875 2.95316318 96.75 2.9375 C95.87730469 2.92912109 95.00460938 2.92074219 94.10546875 2.91210938 C93.26113281 2.90888672 92.41679687 2.90566406 91.546875 2.90234375 C90.77182617 2.89710693 89.99677734 2.89187012 89.19824219 2.88647461 C87.01363933 2.90214138 87.01363933 2.90214138 85.09082031 3.63110352 C83 4 83 4 80.35366821 3.04298401 C76.58566066 1.87114131 73.15350615 1.69322397 69.25048828 1.68115234 C68.49858719 1.67110672 67.7466861 1.6610611 66.97200012 1.65071106 C64.50477817 1.62000045 62.03766413 1.60287798 59.5703125 1.5859375 C57.85251953 1.56721607 56.13473565 1.54764193 54.41696167 1.5272522 C49.90927508 1.47602793 45.4015587 1.4363504 40.89373779 1.39910889 C36.28845918 1.35900825 31.68330342 1.3079436 27.078125 1.2578125 C18.05216976 1.1611682 9.02614499 1.07672677 0 1 C0 0.67 0 0.34 0 0 Z " fill="#2A8CB2" transform="translate(150,71)"/>
<path d="M0 0 C0.66 0 1.32 0 2 0 C0.33438748 4.33270093 -2.87444248 7.13525643 -6.125 10.3125 C-6.70813965 10.88919434 -7.2912793 11.46588867 -7.89208984 12.06005859 C-11.61861539 15.72057317 -15.41838893 19.26527975 -19.4140625 22.6328125 C-21.05199117 23.97893772 -21.05199117 23.97893772 -22.4609375 25.6796875 C-24 27 -24 27 -28 27 C-28 27.66 -28 28.32 -28 29 C-28.66 29 -29.32 29 -30 29 C-31.0625 27.1875 -31.0625 27.1875 -32 25 C-31.505 23.515 -31.505 23.515 -31 22 C-28.69 22.33 -26.38 22.66 -24 23 C-24 20.36 -24 17.72 -24 15 C-23.01 14.67 -22.02 14.34 -21 14 C-21 14.66 -21 15.32 -21 16 C-19.35 15.67 -17.7 15.34 -16 15 C-16 14.34 -16 13.68 -16 13 C-15.01 13 -14.02 13 -13 13 C-13 12.34 -13 11.68 -13 11 C-11.68 11 -10.36 11 -9 11 C-9 10.01 -9 9.02 -9 8 C-8.34 7.67 -7.68 7.34 -7 7 C-6.67 6.01 -6.34 5.02 -6 4 C-4 3.33333333 -2 2.66666667 0 2 C0 1.34 0 0.68 0 0 Z " fill="#24769F" transform="translate(294,90)"/>
<path d="M0 0 C5.28 0 10.56 0 16 0 C16 0.33 16 0.66 16 1 C9.565 1.495 9.565 1.495 3 2 C2.97529065 7.21443333 2.95713556 12.42883261 2.94506836 17.64331055 C2.940038 19.41740513 2.93321301 21.19149556 2.92456055 22.96557617 C2.91243826 25.51482161 2.90675874 28.06401226 2.90234375 30.61328125 C2.89718246 31.40712723 2.89202118 32.20097321 2.88670349 33.01887512 C2.88637123 36.27656286 2.96227174 38.88681521 4 42 C2.0625 42.5625 2.0625 42.5625 0 43 C-1.89173694 41.10826306 -1.12895949 38.35596235 -1.13894653 35.83937073 C-1.1369223 34.97585495 -1.13489807 34.11233917 -1.1328125 33.22265625 C-1.13376923 32.34097275 -1.13472595 31.45928925 -1.13571167 30.55088806 C-1.13639359 28.68211801 -1.13453851 26.81334561 -1.13037109 24.94458008 C-1.12502932 22.07823372 -1.13031242 19.21204453 -1.13671875 16.34570312 C-1.13605785 14.53385382 -1.13477643 12.72200461 -1.1328125 10.91015625 C-1.13584885 9.61791893 -1.13584885 9.61791893 -1.13894653 8.29957581 C-1.11495439 2.22990878 -1.11495439 2.22990878 0 0 Z " fill="#446C58" transform="translate(235,150)"/>
<path d="M0 0 C-1 2 -1 2 -3.3125 2.875 C-6.10169182 3.80381922 -6.10169182 3.80381922 -7.75 6.0625 C-10.71560974 8.6162195 -12.94055752 8.52355094 -16.75 8.79296875 C-21.10939728 9.19409385 -24.39301874 10.59534583 -28 13 C-30.33199388 13.07905064 -32.66832622 13.08798769 -35 13 C-35.33 13.99 -35.66 14.98 -36 16 C-36.99 15.34 -37.98 14.68 -39 14 C-39 13.34 -39 12.68 -39 12 C-18.91980704 4.21569749 -18.91980704 4.21569749 -9.375 0.9375 C-8.20710938 0.53402344 -7.03921875 0.13054687 -5.8359375 -0.28515625 C-3 -1 -3 -1 0 0 Z " fill="#74A882" transform="translate(277,191)"/>
<path d="M0 0 C3.04386724 -0.08226668 5.07175348 0.02391783 8 1 C9.32 1 10.64 1 12 1 C12.25 7.625 12.25 7.625 10 11 C9.01 11.66 8.02 12.32 7 13 C3.51188601 16.29956729 0.43327787 19.81268156 -2.5703125 23.546875 C-4 25 -4 25 -7 26 C-7.08733661 21.89517952 -6.75978016 19.9028157 -4.0703125 16.70703125 C-2.47748858 15.14815275 -0.86515933 13.60896609 0.765625 12.08984375 C3.10819124 9.89880714 5.08956211 7.57493802 7 5 C3.535 3.02 3.535 3.02 0 1 C0 0.67 0 0.34 0 0 Z " fill="#0F5E85" transform="translate(282,61)"/>
<path d="M0 0 C4.14581887 -0.02886751 8.29161216 -0.04675327 12.4375 -0.0625 C14.21350586 -0.07506836 14.21350586 -0.07506836 16.02539062 -0.08789062 C17.15009766 -0.09111328 18.27480469 -0.09433594 19.43359375 -0.09765625 C20.47572021 -0.10289307 21.51784668 -0.10812988 22.59155273 -0.11352539 C25 0 25 0 26 1 C26.09311889 2.50418739 26.11746028 4.01271356 26.11352539 5.51977539 C26.11344986 6.48069595 26.11337433 7.44161652 26.11329651 8.43165588 C26.10813522 9.476436 26.10297394 10.52121613 26.09765625 11.59765625 C26.0962413 12.66165146 26.09482635 13.72564667 26.09336853 14.82188416 C26.08775064 18.23545083 26.07519511 21.648953 26.0625 25.0625 C26.05748731 27.37044176 26.052924 29.67838455 26.04882812 31.98632812 C26.0377754 37.65757426 26.02101987 43.32878253 26 49 C22.28125 51.046875 22.28125 51.046875 19.75 50.625 C19.1725 50.41875 18.595 50.2125 18 50 C18.99 49.01 19.98 48.02 21 47 C22.485 47.495 22.485 47.495 24 48 C24 32.49 24 16.98 24 1 C16.08 1 8.16 1 0 1 C0 0.67 0 0.34 0 0 Z " fill="#A0CDA2" transform="translate(277,121)"/>
<path d="M0 0 C4 4.75 4 4.75 4 7 C3.236875 7.4125 2.47375 7.825 1.6875 8.25 C-2.85177665 11.20580805 -4.12317144 16.09137145 -6 21 C-6.66 21 -7.32 21 -8 21 C-8 21.99 -8 22.98 -8 24 C-11.96 25.98 -11.96 25.98 -16 28 C-14.34097055 23.43988696 -12.06811892 19.33535082 -9.6875 15.125 C-9.30916016 14.44308594 -8.93082031 13.76117188 -8.54101562 13.05859375 C-5.96239753 8.47729257 -3.12078206 4.23100719 0 0 Z " fill="#457783" transform="translate(34,280)"/>
<path d="M0 0 C2 1 2 1 2 1 Z M0 1 C0.66 3.31 1.32 5.62 2 8 C3.32 7.67 4.64 7.34 6 7 C6 9.64 6 12.28 6 15 C5.01 14.67 4.02 14.34 3 14 C3 13.34 3 12.68 3 12 C2.41476562 11.88785156 1.82953125 11.77570313 1.2265625 11.66015625 C-1.19569424 10.94197837 -2.63619261 9.97510219 -4.625 8.4375 C-7.03295004 6.43629893 -7.03295004 6.43629893 -10 6 C-10.66 7.32 -11.32 8.64 -12 10 C-13.32 9.67 -14.64 9.34 -16 9 C-15.34 7.35 -14.68 5.7 -14 4 C-13.34 4 -12.68 4 -12 4 C-11.67 3.01 -11.34 2.02 -11 1 C-6.98195309 0.15901344 -3.98196457 -0.05404945 0 1 Z " fill="#236A82" transform="translate(316,73)"/>
<path d="M0 0 C1 3 1 3 0 6 C-2.375 8.6875 -2.375 8.6875 -5 11 C-5.99 11 -6.98 11 -8 11 C-8.226875 11.763125 -8.45375 12.52625 -8.6875 13.3125 C-10 16 -10 16 -12.4375 17.4375 C-15.71919575 19.43853399 -16.36355382 21.58480798 -18 25 C-20.1875 26.875 -20.1875 26.875 -22 28 C-22 27.01 -22 26.02 -22 25 C-22.33 25.66 -22.66 26.32 -23 27 C-23.66 27 -24.32 27 -25 27 C-23.64763423 24.06120516 -22.10057341 21.70767089 -20 19.25 C-19.484375 18.63640625 -18.96875 18.0228125 -18.4375 17.390625 C-17 16 -17 16 -15 16 C-14.67 15.01 -14.34 14.02 -14 13 C-13.34 13 -12.68 13 -12 13 C-11.731875 12.401875 -11.46375 11.80375 -11.1875 11.1875 C-10.00082594 9.00152146 -8.90400887 7.58667406 -7 6 C-6.34 6 -5.68 6 -5 6 C-4.731875 5.38125 -4.46375 4.7625 -4.1875 4.125 C-3 2 -3 2 0 0 Z " fill="#3480A0" transform="translate(100,92)"/>
<path d="M0 0 C0 1.98 0 3.96 0 6 C-2.31 6.33 -4.62 6.66 -7 7 C-7 6.34 -7 5.68 -7 5 C-11.455 6.485 -11.455 6.485 -16 8 C-16.33 9.98 -16.66 11.96 -17 14 C-17.99 13.34 -18.98 12.68 -20 12 C-20.99 12.495 -20.99 12.495 -22 13 C-21.125 8.25 -21.125 8.25 -20 6 C-17.78852498 4.6789732 -15.60345866 3.47782963 -13.3125 2.3125 C-12.69955078 1.97927734 -12.08660156 1.64605469 -11.45507812 1.30273438 C-7.22201529 -0.8564419 -4.57671879 -1.27248249 0 0 Z " fill="#2F6F8C" transform="translate(327,33)"/>
<path d="M0 0 C1.85625 0.0309375 1.85625 0.0309375 3.75 0.0625 C-1.31254485 5.12504485 -10.35360151 4.23503824 -17.1015625 4.2578125 C-20.359642 4.25208098 -23.6171101 4.22136314 -26.875 4.1875 C-28.56379677 4.17744957 -30.25259934 4.16832737 -31.94140625 4.16015625 C-36.04441594 4.13830739 -40.14714282 4.10389154 -44.25 4.0625 C-43.92 3.4025 -43.59 2.7425 -43.25 2.0625 C-42.21069336 2.03744385 -41.17138672 2.0123877 -40.10058594 1.98657227 C-36.23897297 1.89229074 -32.37753117 1.79212092 -28.51611328 1.69018555 C-26.84590666 1.64691511 -25.17565806 1.60523451 -23.50537109 1.56518555 C-21.10241045 1.50729149 -18.69965959 1.4436526 -16.296875 1.37890625 C-15.55193787 1.36219376 -14.80700073 1.34548126 -14.03948975 1.32826233 C-9.24645412 1.19177625 -4.75447099 -0.07924118 0 0 Z " fill="#5C966D" transform="translate(253.25,318.9375)"/>
<path d="M0 0 C1.03125 0.185625 2.0625 0.37125 3.125 0.5625 C6.76148442 0.97307082 9.45437009 0.778309 13 0 C8.47033954 5.04945756 2.46465595 7.50904127 -4.2734375 8.25 C-6.1875 8.25 -6.1875 8.25 -9 8 C-8.01 7.67 -7.02 7.34 -6 7 C-6.33 5.02 -6.66 3.04 -7 1 C-4.69 1.33 -2.38 1.66 0 2 C0 1.34 0 0.68 0 0 Z " fill="#278688" transform="translate(85,296)"/>
<path d="M0 0 C2.61376953 -0.34057617 2.61376953 -0.34057617 5.8828125 -0.29296875 C7.04941406 -0.28330078 8.21601563 -0.27363281 9.41796875 -0.26367188 C10.64128906 -0.23853516 11.86460937 -0.21339844 13.125 -0.1875 C14.35605469 -0.17396484 15.58710938 -0.16042969 16.85546875 -0.14648438 C19.90407843 -0.11103543 22.951825 -0.06162079 26 0 C26 0.66 26 1.32 26 2 C18.74 1.67 11.48 1.34 4 1 C3.1809559 6.71507753 3.1809559 6.71507753 2.4375 12.4375 C2.2209375 14.2009375 2.2209375 14.2009375 2 16 C1.67 16 1.34 16 1 16 C0.67 17.98 0.34 19.96 0 22 C-0.33 22 -0.66 22 -1 22 C-1.22595954 18.89685213 -1.42770896 15.79259193 -1.625 12.6875 C-1.68945312 11.80642578 -1.75390625 10.92535156 -1.8203125 10.01757812 C-1.871875 9.17001953 -1.9234375 8.32246094 -1.9765625 7.44921875 C-2.02893066 6.66893311 -2.08129883 5.88864746 -2.13525391 5.0847168 C-2 3 -2 3 0 0 Z " fill="#64A974" transform="translate(275,122)"/>
<path d="M0 0 C0 0.99 0 1.98 0 3 C-0.99 3.33 -1.98 3.66 -3 4 C-3.66 4.66 -4.32 5.32 -5 6 C-6.8871875 6.12375 -6.8871875 6.12375 -8.8125 6.25 C-11.39528625 6.48993096 -12.64389472 6.6965881 -14.63671875 8.39453125 C-16.1727616 10.22431641 -16.1727616 10.22431641 -18 13 C-18.33 12.34 -18.66 11.68 -19 11 C-19.66 11 -20.32 11 -21 11 C-21 10.34 -21 9.68 -21 9 C-21.99 8.67 -22.98 8.34 -24 8 C-20.38017873 6.46662201 -16.75339871 4.95045684 -13.125 3.4375 C-11.57619141 2.78104492 -11.57619141 2.78104492 -9.99609375 2.11132812 C-9.00996094 1.70205078 -8.02382812 1.29277344 -7.0078125 0.87109375 C-6.09660645 0.48880615 -5.18540039 0.10651855 -4.24658203 -0.28735352 C-2 -1 -2 -1 0 0 Z " fill="#45937A" transform="translate(132,305)"/>
<path d="M0 0 C0.33 0 0.66 0 1 0 C1 2.31 1 4.62 1 7 C0.0409375 7.37125 0.0409375 7.37125 -0.9375 7.75 C-3.18741541 8.81562433 -3.18741541 8.81562433 -3.75 11.125 C-3.8325 11.74375 -3.915 12.3625 -4 13 C-5.32 13.33 -6.64 13.66 -8 14 C-8.10957031 14.65226563 -8.21914062 15.30453125 -8.33203125 15.9765625 C-9.26508962 21.1197623 -10.34784083 25.41899779 -13 30 C-14.1171875 28.34375 -14.1171875 28.34375 -15 26 C-12.79073203 16.71548144 -6.72387573 6.72387573 0 0 Z " fill="#4994AD" transform="translate(73,120)"/>
<path d="M0 0 C0.66 0.33 1.32 0.66 2 1 C1.67 1.66 1.34 2.32 1 3 C0.01 3.33 -0.98 3.66 -2 4 C-2.26039063 4.91136719 -2.52078125 5.82273437 -2.7890625 6.76171875 C-4.33594082 10.89837078 -6.79529559 12.52196227 -10.375 14.8125 C-10.9525 15.20630859 -11.53 15.60011719 -12.125 16.00585938 C-14.99922148 17.91872595 -17.55422852 19.48228557 -21 20 C-21 19.01 -21 18.02 -21 17 C-19.02 16.67 -17.04 16.34 -15 16 C-14.9175 15.21625 -14.835 14.4325 -14.75 13.625 C-14.5025 12.75875 -14.255 11.8925 -14 11 C-12.67116327 10.32441494 -11.33721474 9.65884668 -10 9 C-8.40345105 7.35960116 -8.40345105 7.35960116 -7 5.5 C-4.91632248 2.82745709 -3.21652853 1.19322833 0 0 Z " fill="#6EAF72" transform="translate(292,294)"/>
<path d="M0 0 C1.68222656 0.2475 1.68222656 0.2475 3.3984375 0.5 C8.15819829 1.09418552 12.83601423 1.0705628 17.625 1 C25.80740359 0.93310558 33.84711269 1.24410316 42 2 C42 2.33 42 2.66 42 3 C27.74846716 4.98036188 15.09491767 5.96476394 1 2 C0.67 1.34 0.34 0.68 0 0 Z " fill="#489BBA" transform="translate(79,201)"/>
<path d="M0 0 C0.66 2.64 1.32 5.28 2 8 C2.66 8 3.32 8 4 8 C4.1875 10.375 4.1875 10.375 4 13 C3.01 13.66 2.02 14.32 1 15 C0.8046875 12.94921875 0.609375 10.8984375 0.4140625 8.84765625 C0.27742188 8.23792969 0.14078125 7.62820312 0 7 C-4.88867901 4.55566049 -11.85153098 5.94390379 -17 7 C-16.67 6.01 -16.34 5.02 -16 4 C-13.8203125 3.0859375 -13.8203125 3.0859375 -11.125 2.375 C-10.24070312 2.13523438 -9.35640625 1.89546875 -8.4453125 1.6484375 C-7.63835937 1.43445313 -6.83140625 1.22046875 -6 1 C-3 0 -3 0 0 0 Z " fill="#74A47A" transform="translate(269,232)"/>
<path d="M0 0 C0.97517578 0.00193359 1.95035156 0.00386719 2.95507812 0.00585938 C4.47198242 0.02422852 4.47198242 0.02422852 6.01953125 0.04296875 C7.04240234 0.04361328 8.06527344 0.04425781 9.11914062 0.04492188 C16.69170874 0.09014624 16.69170874 0.09014624 17.83203125 1.23046875 C17.91916956 2.93819233 17.93903132 4.64945524 17.9296875 6.359375 C17.92646484 7.39384766 17.92324219 8.42832031 17.91992188 9.49414062 C17.91154297 10.58275391 17.90316406 11.67136719 17.89453125 12.79296875 C17.89001953 13.88544922 17.88550781 14.97792969 17.88085938 16.10351562 C17.86902951 18.8125537 17.85254668 21.52148474 17.83203125 24.23046875 C16.51203125 24.23046875 15.19203125 24.23046875 13.83203125 24.23046875 C14.16203125 23.57046875 14.49203125 22.91046875 14.83203125 22.23046875 C15.49203125 22.23046875 16.15203125 22.23046875 16.83203125 22.23046875 C16.33703125 12.82546875 16.33703125 12.82546875 15.83203125 3.23046875 C7.58203125 2.90046875 -0.66796875 2.57046875 -9.16796875 2.23046875 C-5.33650601 0.31473738 -4.05897773 -0.01864768 0 0 Z " fill="#67A998" transform="translate(207.16796875,172.76953125)"/>
<path d="M0 0 C0 0.66 0 1.32 0 2 C-1.175625 2.433125 -1.175625 2.433125 -2.375 2.875 C-5.09671632 3.84912254 -5.09671632 3.84912254 -7 6 C-7.99 5.67 -8.98 5.34 -10 5 C-14.19184724 6.27830589 -17.38088607 7.86495779 -19.5 11.75 C-19.665 12.4925 -19.83 13.235 -20 14 C-20.66 13.34 -21.32 12.68 -22 12 C-24.32275177 11.59952556 -26.65739357 11.2602896 -29 11 C-29 10.34 -29 9.68 -29 9 C-27.19015625 8.40251953 -27.19015625 8.40251953 -25.34375 7.79296875 C-23.72913954 7.25789435 -22.11455773 6.72273348 -20.5 6.1875 C-19.70851562 5.92646484 -18.91703125 5.66542969 -18.1015625 5.39648438 C-14.22936747 4.11104258 -10.39598785 2.78146041 -6.59375 1.30078125 C-3 0 -3 0 0 0 Z " fill="#589B81" transform="translate(201,217)"/>
<path d="M0 0 C1.32 0.99 2.64 1.98 4 3 C3.01 3.33 2.02 3.66 1 4 C0.67 4.99 0.34 5.98 0 7 C-2.28034235 8.83061617 -4.5419668 10.52320984 -6.9375 12.1875 C-7.58396484 12.65091797 -8.23042969 13.11433594 -8.89648438 13.59179688 C-13.73020987 17 -13.73020987 17 -16 17 C-16.33 17.99 -16.66 18.98 -17 20 C-17.66 18.68 -18.32 17.36 -19 16 C-18.34 16 -17.68 16 -17 16 C-17 15.34 -17 14.68 -17 14 C-16.01 14 -15.02 14 -14 14 C-14 13.34 -14 12.68 -14 12 C-12.02 11.67 -10.04 11.34 -8 11 C-8 10.01 -8 9.02 -8 8 C-6.25 5.8125 -6.25 5.8125 -4 4 C-2.68 4 -1.36 4 0 4 C0 2.68 0 1.36 0 0 Z " fill="#4A90AC" transform="translate(246,131)"/>
<path d="M0 0 C1.65 0 3.3 0 5 0 C4.7421875 1.86328125 4.7421875 1.86328125 4 4 C2.2578125 5.23046875 2.2578125 5.23046875 0.125 6.1875 C-0.57367188 6.51105469 -1.27234375 6.83460938 -1.9921875 7.16796875 C-5.21163124 8.50209622 -7.72789763 9.11921479 -11.1875 9.0625 C-13.0746875 9.0315625 -13.0746875 9.0315625 -15 9 C-15 9.66 -15 10.32 -15 11 C-15.66 11 -16.32 11 -17 11 C-17 10.01 -17 9.02 -17 8 C-13.62902617 6.50178941 -11.79557881 6 -8 6 C-6.97895449 5.02149805 -5.9793879 4.02019573 -5 3 C-3.67139075 2.64830932 -2.33841672 2.31229724 -1 2 C-0.67 1.34 -0.34 0.68 0 0 Z " fill="#2F897D" transform="translate(125,282)"/>
<path d="M0 0 C0 0.66 0 1.32 0 2 C-6.41671609 5.99262334 -14.37861113 10.87460671 -22.1875 9.75 C-23.5796875 9.37875 -23.5796875 9.37875 -25 9 C-22.36041882 7.24027922 -20.35251231 6.30410254 -17.40234375 5.2734375 C-16.07686523 4.809375 -16.07686523 4.809375 -14.72460938 4.3359375 C-13.80486328 4.01882812 -12.88511719 3.70171875 -11.9375 3.375 C-10.55208008 2.88773438 -10.55208008 2.88773438 -9.13867188 2.390625 C-2.26311384 0 -2.26311384 0 0 0 Z " fill="#67A887" transform="translate(237,204)"/>
<path d="M0 0 C2.97851562 0.87890625 2.97851562 0.87890625 5.95703125 1.7578125 C2.16985077 3.85305781 -1.87557075 5.13189482 -5.98046875 6.4453125 C-6.68365234 6.68314453 -7.38683594 6.92097656 -8.11132812 7.16601562 C-12.11821045 8.44656565 -14.99171423 9.06594752 -19.04296875 7.7578125 C-14.82735108 4.94740072 -11.86492058 3.35640834 -6.98046875 2.3203125 C-4.22502738 1.52034565 -2.95353182 -0.35013188 0 0 Z " fill="#3D9AB8" transform="translate(138.04296875,194.2421875)"/>
<path d="M0 0 C-1.1875 2.4375 -1.1875 2.4375 -3 5 C-5.6875 5.8125 -5.6875 5.8125 -8 6 C-8 5.34 -8 4.68 -8 4 C-8.66 4 -9.32 4 -10 4 C-10.66 4.66 -11.32 5.32 -12 6 C-12.66 5.67 -13.32 5.34 -14 5 C-16.3494053 5.60760482 -18.68529088 6.27129528 -21 7 C-21 6.34 -21 5.68 -21 5 C-20.01 5 -19.02 5 -18 5 C-18 4.01 -18 3.02 -18 2 C-11.92972642 -0.1583195 -6.40629424 -0.20852314 0 0 Z " fill="#31847C" transform="translate(118,249)"/>
<path d="M0 0 C0.33 0.66 0.66 1.32 1 2 C1.66 2.33 2.32 2.66 3 3 C-4.54549287 6.33160505 -11.97928527 9.05797655 -20 11 C-20 10.01 -20 9.02 -20 8 C-19.01257813 7.66226563 -18.02515625 7.32453125 -17.0078125 6.9765625 C-15.71343623 6.52634467 -14.41917113 6.07580716 -13.125 5.625 C-12.47402344 5.40328125 -11.82304687 5.1815625 -11.15234375 4.953125 C-8.23449455 3.93037374 -6.21443349 3.21443349 -4 1 C-1.875 0.375 -1.875 0.375 0 0 Z " fill="#6EA888" transform="translate(261,181)"/>
<path d="M0 0 C0.33 0.99 0.66 1.98 1 3 C1.5775 2.484375 2.155 1.96875 2.75 1.4375 C5 0 5 0 7.140625 0.41015625 C8.06101563 0.70212891 8.06101563 0.70212891 9 1 C6.87941855 2.67257128 4.75395924 4.33815418 2.625 6 C2.02171875 6.47695312 1.4184375 6.95390625 0.796875 7.4453125 C-3.7734375 11 -3.7734375 11 -6 11 C-5.62671065 5.64951939 -4.0042343 3.49087093 0 0 Z " fill="#3A96BB" transform="translate(227,97)"/>
<path d="M0 0 C2.97 0.495 2.97 0.495 6 1 C3.57312131 2.61791913 1.68273457 3.61814604 -0.984375 4.65625 C-2.14066406 5.10677734 -2.14066406 5.10677734 -3.3203125 5.56640625 C-4.12210938 5.87449219 -4.92390625 6.18257813 -5.75 6.5 C-6.53632813 6.80808594 -7.32265625 7.11617188 -8.1328125 7.43359375 C-12.70836231 9.20452914 -17.26000731 10.73262228 -22 12 C-22 11.01 -22 10.02 -22 9 C-21.113125 8.71125 -20.22625 8.4225 -19.3125 8.125 C-16.09221669 7.0843865 -16.09221669 7.0843865 -13.4375 5.875 C-10.80171456 4.92882061 -8.77832339 4.84123866 -6 5 C-6 4.34 -6 3.68 -6 3 C-4.02 2.67 -2.04 2.34 0 2 C0 1.34 0 0.68 0 0 Z " fill="#50917B" transform="translate(178,264)"/>
<path d="M0 0 C0.33 0 0.66 0 1 0 C1.05845196 3.37492629 1.09374742 6.74972087 1.125 10.125 C1.15013672 11.55199219 1.15013672 11.55199219 1.17578125 13.0078125 C1.21142853 18.14102097 0.90009684 22.16338987 -1 27 C-1.26211438 28.61719629 -1.47667526 30.24342789 -1.625 31.875 C-1.73714844 33.04675781 -1.73714844 33.04675781 -1.8515625 34.2421875 C-1.90054687 34.82226562 -1.94953125 35.40234375 -2 36 C-4.45410358 32.31884463 -4.23287843 30.34706402 -4 26 C-3.505 24.515 -3.505 24.515 -3 23 C-2.34 23 -1.68 23 -1 23 C-1.00523682 22.37432129 -1.01047363 21.74864258 -1.01586914 21.10400391 C-1.03661618 18.27767943 -1.04965286 15.45137095 -1.0625 12.625 C-1.07087891 11.64015625 -1.07925781 10.6553125 -1.08789062 9.640625 C-1.09111328 8.69960938 -1.09433594 7.75859375 -1.09765625 6.7890625 C-1.10289307 5.91975098 -1.10812988 5.05043945 -1.11352539 4.15478516 C-1 2 -1 2 0 0 Z " fill="#2B6B8D" transform="translate(326,41)"/>
<path d="M0 0 C0.99 0 1.98 0 3 0 C2.67 2.64 2.34 5.28 2 8 C0.68 8.33 -0.64 8.66 -2 9 C-1.34 9.66 -0.68 10.32 0 11 C-5.625 11.25 -5.625 11.25 -9 9 C-8.3125 7.0625 -8.3125 7.0625 -7 5 C-4.375 4.25 -4.375 4.25 -2 4 C-2 3.34 -2 2.68 -2 2 C-1.34 2 -0.68 2 0 2 C0 1.34 0 0.68 0 0 Z " fill="#08608D" transform="translate(291,49)"/>
<path d="M0 0 C0.99 0.33 1.98 0.66 3 1 C3 2.32 3 3.64 3 5 C0.875 6.5 0.875 6.5 -2 8 C-2.99 8.721875 -3.98 9.44375 -5 10.1875 C-8.09040701 12.0546209 -9.48187808 12.4138967 -13 12 C-10.04276668 8.95035313 -7.00041058 6.00245366 -3.875 3.125 C-3.21242187 2.50882812 -2.54984375 1.89265625 -1.8671875 1.2578125 C-1.25101563 0.84273438 -0.63484375 0.42765625 0 0 Z " fill="#26759A" transform="translate(257,98)"/>
<path d="M0 0 C-0.66 1.65 -1.32 3.3 -2 5 C-8.65936905 5.76418989 -15.32271667 6.41339754 -22 7 C-18.92606787 3.92606787 -15.07363012 3.15250991 -11 1.8125 C-10.16726562 1.52697266 -9.33453125 1.24144531 -8.4765625 0.94726562 C-7.67992188 0.68236328 -6.88328125 0.41746094 -6.0625 0.14453125 C-5.33160156 -0.09934326 -4.60070312 -0.34321777 -3.84765625 -0.59448242 C-2 -1 -2 -1 0 0 Z " fill="#519B8E" transform="translate(130,243)"/>
<path d="M0 0 C1.32 0 2.64 0 4 0 C4 0.66 4 1.32 4 2 C1.63125244 3.59704238 -0.72322203 5.0649879 -3.1875 6.5 C-3.86103516 6.90347656 -4.53457031 7.30695313 -5.22851562 7.72265625 C-8.73415202 9.79525689 -12.14962298 11.62433132 -16 13 C-15.34 11.68 -14.68 10.36 -14 9 C-13.34 9 -12.68 9 -12 9 C-12 8.01 -12 7.02 -12 6 C-10.35 6.33 -8.7 6.66 -7 7 C-6.67 5.35 -6.34 3.7 -6 2 C-4.02 2 -2.04 2 0 2 C0 1.34 0 0.68 0 0 Z " fill="#4194AF" transform="translate(204,163)"/>
<path d="M0 0 C7.48116133 0.28230797 12.65074114 3.18344183 19 7 C18.67 7.66 18.34 8.32 18 9 C17.01 8.67 16.02 8.34 15 8 C12.85744207 8.38932856 12.85744207 8.38932856 11 9 C11 8.01 11 7.02 11 6 C9.9171875 5.814375 9.9171875 5.814375 8.8125 5.625 C5.99786251 4.999525 3.5800738 4.2900369 1 3 C0.67 2.01 0.34 1.02 0 0 Z " fill="#85B881" transform="translate(315,178)"/>
<path d="M0 0 C0.81466478 3.25865914 1.09544942 5.05235439 0.9140625 8.2578125 C0.87023437 9.04800781 0.82640625 9.83820313 0.78125 10.65234375 C0.7296875 11.46832031 0.678125 12.28429687 0.625 13.125 C0.58117187 13.94871094 0.53734375 14.77242187 0.4921875 15.62109375 C0.13188486 21.73623029 0.13188486 21.73623029 -1 24 C-2.98 23.67 -4.96 23.34 -7 23 C-7.33 22.01 -7.66 21.02 -8 20 C-7.34 20 -6.68 20 -6 20 C-6 20.66 -6 21.32 -6 22 C-5.34 22 -4.68 22 -4 22 C-3.67 18.04 -3.34 14.08 -3 10 C-2.67 10 -2.34 10 -2 10 C-1.34 6.7 -0.68 3.4 0 0 Z " fill="#398CA1" transform="translate(325,65)"/>
<path d="M0 0 C0.66 0 1.32 0 2 0 C2 0.99 2 1.98 2 3 C3.7290774 3.02725341 5.45828176 3.04650987 7.1875 3.0625 C8.63189453 3.07990234 8.63189453 3.07990234 10.10546875 3.09765625 C12.85576513 3.00486622 15.32479591 2.62111685 18 2 C18 2.66 18 3.32 18 4 C12.43930418 6.25433614 6.9214349 6.59961828 1 7 C-1 4 -1 4 -0.625 1.8125 C-0.41875 1.214375 -0.2125 0.61625 0 0 Z " fill="#076484" transform="translate(16,317)"/>
<path d="M0 0 C0.97646484 0.00322266 1.95292969 0.00644531 2.95898438 0.00976562 C3.96638672 0.01814453 4.97378906 0.02652344 6.01171875 0.03515625 C7.03845703 0.03966797 8.06519531 0.04417969 9.12304688 0.04882812 C11.64849757 0.06057441 14.1738278 0.0770006 16.69921875 0.09765625 C16.69921875 0.42765625 16.69921875 0.75765625 16.69921875 1.09765625 C8.4410371 2.98524063 0.16822093 3.88118298 -8.30078125 3.09765625 C-8.96078125 2.43765625 -9.62078125 1.77765625 -10.30078125 1.09765625 C-6.80085429 0.30058857 -3.58655815 -0.02097402 0 0 Z " fill="#64A68B" transform="translate(168.30078125,194.90234375)"/>
<path d="M0 0 C1.98 0 3.96 0 6 0 C4.66666667 1.33333333 3.33333333 2.66666667 2 4 C0.7934375 5.2375 0.7934375 5.2375 -0.4375 6.5 C-2.84786153 8.85157222 -5.33569287 10.94467736 -8 13 C-8 9.7 -8 6.4 -8 3 C-5.69 3 -3.38 3 -1 3 C-0.67 2.01 -0.34 1.02 0 0 Z " fill="#449ABD" transform="translate(136,129)"/>
<path d="M0 0 C-1 2 -1 2 -3.3125 2.875 C-6.12729945 3.82456238 -6.12729945 3.82456238 -7.9375 6.1875 C-8.9584375 7.0846875 -8.9584375 7.0846875 -10 8 C-13.25 7.75 -13.25 7.75 -16 7 C-14 4 -14 4 -11 3 C-10.67 2.34 -10.34 1.68 -10 1 C-3.67567568 -1.22522523 -3.67567568 -1.22522523 0 0 Z " fill="#5BA169" transform="translate(277,191)"/>
<path d="M0 0 C-3 2 -3 2 -5.5625 2.375 C-8.14259681 2.74965232 -8.14259681 2.74965232 -9.3125 4.9375 C-10.10540926 6.95388345 -10.10540926 6.95388345 -10 9 C-10.99 9.495 -10.99 9.495 -12 10 C-13.13350534 12.01669827 -13.13350534 12.01669827 -14 14 C-16 11 -16 11 -16.125 8.6875 C-14.36173125 4.47524688 -10.87489605 2.27173869 -7 0 C-3.93606691 -1.08478234 -3.21070296 -1.07023432 0 0 Z " fill="#448794" transform="translate(51,271)"/>
<path d="M0 0 C0 3 0 3 -1.875 5.0625 C-2.57625 5.701875 -3.2775 6.34125 -4 7 C-4.66 7.66 -5.32 8.32 -6 9 C-8.71631546 8.09456151 -11.34771188 7.07525194 -14 6 C-11.47732009 4.31821339 -9.18908177 3.09893258 -6.4375 1.875 C-5.65246094 1.52179688 -4.86742187 1.16859375 -4.05859375 0.8046875 C-2 0 -2 0 0 0 Z " fill="#67A687" transform="translate(201,277)"/>
<path d="M0 0 C2.125 0.9375 2.125 0.9375 4 2 C-0.34086242 7.89117043 -0.34086242 7.89117043 -4 9 C-6.75 8.625 -6.75 8.625 -9 8 C-8.34 7.67 -7.68 7.34 -7 7 C-7 6.34 -7 5.68 -7 5 C-6.360625 4.896875 -5.72125 4.79375 -5.0625 4.6875 C-4.381875 4.460625 -3.70125 4.23375 -3 4 C-2.67 3.01 -2.34 2.02 -2 1 C-1.34 0.67 -0.68 0.34 0 0 Z " fill="#1A797A" transform="translate(92,254)"/>
<path d="M0 0 C0.66 0 1.32 0 2 0 C1.69320312 0.54140625 1.38640625 1.0828125 1.0703125 1.640625 C-0.15628211 4.34450508 -0.63743776 6.82462658 -1.125 9.75 C-1.29257812 10.73484375 -1.46015625 11.7196875 -1.6328125 12.734375 C-1.75398438 13.48203125 -1.87515625 14.2296875 -2 15 C-2.99 15 -3.98 15 -5 15 C-5 13.68 -5 12.36 -5 11 C-5.33 12.65 -5.66 14.3 -6 16 C-6.33 16 -6.66 16 -7 16 C-7.1953125 9.9453125 -7.1953125 9.9453125 -7 8 C-6.34 7.34 -5.68 6.68 -5 6 C-4.67 6.33 -4.34 6.66 -4 7 C-2.68 4.69 -1.36 2.38 0 0 Z " fill="#2C92B6" transform="translate(64,141)"/>
<path d="M0 0 C0.66 0 1.32 0 2 0 C0.125 4.75 0.125 4.75 -1 7 C-1.66 7 -2.32 7 -3 7 C-3 7.66 -3 8.32 -3 9 C-4.29233607 10.37310707 -5.62437146 11.71034824 -7 13 C-6.67 13.66 -6.34 14.32 -6 15 C-6.66 15.66 -7.32 16.32 -8 17 C-8 16.34 -8 15.68 -8 15 C-9.65 15.66 -11.3 16.32 -13 17 C-6.728 5.576 -6.728 5.576 -2 4 C-0.79117904 1.99983534 -0.79117904 1.99983534 0 0 Z " fill="#168CC1" transform="translate(92,103)"/>
<path d="M0 0 C-0.25 1.875 -0.25 1.875 -1 4 C-4.39958307 6.28818091 -7.73287088 6.38397225 -11.75 6.625 C-12.92046875 6.69976562 -14.0909375 6.77453125 -15.296875 6.8515625 C-16.18890625 6.90054688 -17.0809375 6.94953125 -18 7 C-15.05054406 5.03369604 -12.26302526 3.74259147 -9 2.375 C-7.948125 1.92898437 -6.89625 1.48296875 -5.8125 1.0234375 C-3 0 -3 0 0 0 Z " fill="#4894B1" transform="translate(176,151)"/>
<path d="M0 0 C1 3 1 3 0.109375 4.97265625 C-0.33921875 5.66230469 -0.7878125 6.35195312 -1.25 7.0625 C-1.68828125 7.75472656 -2.1265625 8.44695312 -2.578125 9.16015625 C-4 11 -4 11 -7 13 C-7 12.01 -7 11.02 -7 10 C-7.33 10.66 -7.66 11.32 -8 12 C-8.66 12 -9.32 12 -10 12 C-8.65263662 9.06559801 -7.11433035 6.74926573 -5 4.3125 C-4.484375 3.71050781 -3.96875 3.10851562 -3.4375 2.48828125 C-2 1 -2 1 0 0 Z " fill="#4FA0C3" transform="translate(85,107)"/>
<path d="M0 0 C0.66 0 1.32 0 2 0 C0.33830526 4.30577504 -2.83080306 7.09011855 -6.0625 10.25 C-6.61744141 10.80429688 -7.17238281 11.35859375 -7.74414062 11.9296875 C-11.85956743 16 -11.85956743 16 -13 16 C-13 14.35 -13 12.7 -13 11 C-11.68 11 -10.36 11 -9 11 C-9 10.01 -9 9.02 -9 8 C-8.34 7.67 -7.68 7.34 -7 7 C-6.67 6.01 -6.34 5.02 -6 4 C-4 3.33333333 -2 2.66666667 0 2 C0 1.34 0 0.68 0 0 Z " fill="#4F8AA5" transform="translate(294,90)"/>
<path d="M0 0 C1.48243307 5.0070991 0.67323012 9.72561127 0.0625 14.8125 C-0.03740234 15.69615234 -0.13730469 16.57980469 -0.24023438 17.49023438 C-0.48664994 19.66103813 -0.74010035 21.83077637 -1 24 C-1.33 24 -1.66 24 -2 24 C-2 17.07 -2 10.14 -2 3 C-3.32 2.34 -4.64 1.68 -6 1 C-4 0 -4 0 0 0 Z " fill="#709DB7" transform="translate(329,30)"/>
<path d="M0 0 C0.52078125 0.23589844 1.0415625 0.47179688 1.578125 0.71484375 C-0.421875 3.71484375 -0.421875 3.71484375 -2.5859375 4.2265625 C-3.39804687 4.28457031 -4.21015625 4.34257813 -5.046875 4.40234375 C-6.27277344 4.50095703 -6.27277344 4.50095703 -7.5234375 4.6015625 C-8.14992188 4.63894531 -8.77640625 4.67632812 -9.421875 4.71484375 C-9.421875 5.37484375 -9.421875 6.03484375 -9.421875 6.71484375 C-10.081875 6.71484375 -10.741875 6.71484375 -11.421875 6.71484375 C-11.091875 7.70484375 -10.761875 8.69484375 -10.421875 9.71484375 C-11.411875 9.71484375 -12.401875 9.71484375 -13.421875 9.71484375 C-13.421875 9.05484375 -13.421875 8.39484375 -13.421875 7.71484375 C-14.081875 7.38484375 -14.741875 7.05484375 -15.421875 6.71484375 C-13.34614419 5.51199974 -11.26304405 4.32778674 -9.171875 3.15234375 C-8.29208984 2.63897461 -8.29208984 2.63897461 -7.39453125 2.11523438 C-2.96392641 -0.34897843 -2.96392641 -0.34897843 0 0 Z " fill="#3D7D9F" transform="translate(300.421875,44.28515625)"/>
<path d="M0 0 C0 0.66 0 1.32 0 2 C-1.98 2.33 -3.96 2.66 -6 3 C-6.33 4.98 -6.66 6.96 -7 9 C-7.99 9.33 -8.98 9.66 -10 10 C-10.99 9.01 -11.98 8.02 -13 7 C-11.9375 4.125 -11.9375 4.125 -10 1 C-6.06408206 -0.61653773 -4.0741698 -1.3580566 0 0 Z " fill="#0C75A4" transform="translate(253,109)"/>
<path d="M0 0 C1.5 1.1875 1.5 1.1875 3 3 C3.1875 5.6875 3.1875 5.6875 3 8 C1.35 8.33 -0.3 8.66 -2 9 C-2 9.66 -2 10.32 -2 11 C-4 12.625 -4 12.625 -6 14 C-6.66 13.01 -7.32 12.02 -8 11 C-7.34 11 -6.68 11 -6 11 C-5.67 10.01 -5.34 9.02 -5 8 C-3.35 7.67 -1.7 7.34 0 7 C-0.185625 6.030625 -0.37125 5.06125 -0.5625 4.0625 C-0.706875 3.051875 -0.85125 2.04125 -1 1 C-0.67 0.67 -0.34 0.34 0 0 Z " fill="#166994" transform="translate(296,81)"/>
<path d="M0 0 C0.99 0.33 1.98 0.66 3 1 C2.48223379 5.10447392 0.35372556 6.95699523 -2.5625 9.75 C-3.80193359 10.94882812 -3.80193359 10.94882812 -5.06640625 12.171875 C-5.70449219 12.77515625 -6.34257812 13.3784375 -7 14 C-7.33 12.68 -7.66 11.36 -8 10 C-6.68 9.67 -5.36 9.34 -4 9 C-3.896875 8.2575 -3.79375 7.515 -3.6875 6.75 C-2.95746496 3.82985982 -1.93210602 2.26812446 0 0 Z " fill="#79B477" transform="translate(297,288)"/>
<path d="M0 0 C1.22589844 0.15275391 1.22589844 0.15275391 2.4765625 0.30859375 C3.41628906 0.43427734 3.41628906 0.43427734 4.375 0.5625 C1.52844131 2.00527632 -1.34139675 3.37425104 -4.25 4.6875 C-5.02601563 5.04070312 -5.80203125 5.39390625 -6.6015625 5.7578125 C-8.625 6.5625 -8.625 6.5625 -10.625 6.5625 C-10.625 5.9025 -10.625 5.2425 -10.625 4.5625 C-11.285 4.2325 -11.945 3.9025 -12.625 3.5625 C-10.645 3.2325 -8.665 2.9025 -6.625 2.5625 C-6.625 1.9025 -6.625 1.2425 -6.625 0.5625 C-4.10446405 -0.69776798 -2.7707902 -0.35624445 0 0 Z " fill="#6AA781" transform="translate(222.625,248.4375)"/>
<path d="M0 0 C2.31 0.66 4.62 1.32 7 2 C6.67 3.32 6.34 4.64 6 6 C2.7 6.33 -0.6 6.66 -4 7 C-3.01 5.68 -2.02 4.36 -1 3 C-0.67 2.01 -0.34 1.02 0 0 Z " fill="#0A6B86" transform="translate(39,312)"/>
<path d="M0 0 C5.60300752 2.31428571 5.60300752 2.31428571 7.375 5.375 C8.02402047 8.10088596 8.37603807 10.21731828 8 13 C7.01 13.66 6.02 14.32 5 15 C3.875 8.375 3.875 8.375 5 5 C3.35 5 1.7 5 0 5 C-0.5625 3.0625 -0.5625 3.0625 -1 1 C-0.67 0.67 -0.34 0.34 0 0 Z " fill="#71B371" transform="translate(330,185)"/>
<path d="M0 0 C2.475 0.99 2.475 0.99 5 2 C4.67 2.99 4.34 3.98 4 5 C3.01 5 2.02 5 1 5 C0.34 6.32 -0.32 7.64 -1 9 C-2.32 8.67 -3.64 8.34 -5 8 C-4.34 6.35 -3.68 4.7 -3 3 C-2.34 3 -1.68 3 -1 3 C-0.67 2.01 -0.34 1.02 0 0 Z " fill="#16628E" transform="translate(305,74)"/>
<path d="M0 0 C2.97 0.495 2.97 0.495 6 1 C6 2.98 6 4.96 6 7 C3.69 7.33 1.38 7.66 -1 8 C-1 7.34 -1 6.68 -1 6 C-1.66 5.67 -2.32 5.34 -3 5 C-1.35 4.01 0.3 3.02 2 2 C1.34 1.34 0.68 0.68 0 0 Z " fill="#126C99" transform="translate(321,32)"/>
<path d="M0 0 C0.99 0.495 0.99 0.495 2 1 C2.33 2.65 2.66 4.3 3 6 C7.62 5.67 12.24 5.34 17 5 C11.57683727 9.06737205 8.72144654 9.12925859 2 9 C2 8.34 2 7.68 2 7 C1.34 7 0.68 7 0 7 C0 4.69 0 2.38 0 0 Z " fill="#3C7A91" transform="translate(14,317)"/>
<path d="M0 0 C1.98 0 3.96 0 6 0 C6.66 1.32 7.32 2.64 8 4 C6.58622218 4.36552803 5.16879424 4.71695495 3.75 5.0625 C2.96109375 5.25972656 2.1721875 5.45695312 1.359375 5.66015625 C-1.10394822 6.01497267 -2.65604132 5.76877544 -5 5 C-4.360625 4.731875 -3.72125 4.46375 -3.0625 4.1875 C-0.66868314 3.11332248 -0.66868314 3.11332248 0 0 Z " fill="#17758D" transform="translate(59,306)"/>
<path d="M0 0 C0.66 0 1.32 0 2 0 C2.33 2.31 2.66 4.62 3 7 C-0.96 8.98 -0.96 8.98 -5 11 C-3.55049545 7.2089881 -1.84827434 3.6125362 0 0 Z " fill="#40788A" transform="translate(23,297)"/>
<path d="M0 0 C1.32 0.33 2.64 0.66 4 1 C4 1.66 4 2.32 4 3 C6.475 3.495 6.475 3.495 9 4 C5.94755766 4.90025949 3.29954426 5.07911637 0.125 5 C-3.704145 4.95468467 -7.23671927 5.20773037 -11 6 C-8.49751135 4.33167423 -6.58850813 3.37618326 -3.8125 2.375 C-3.09707031 2.11460937 -2.38164062 1.85421875 -1.64453125 1.5859375 C-1.10183594 1.39257812 -0.55914062 1.19921875 0 1 C0 0.67 0 0.34 0 0 Z " fill="#74B876" transform="translate(312,178)"/>
<path d="M0 0 C1.32 0.99 2.64 1.98 4 3 C3.07038578 4.15224028 2.1309875 5.29659176 1.1875 6.4375 C0.40439453 7.39462891 0.40439453 7.39462891 -0.39453125 8.37109375 C-2 10 -2 10 -5 11 C-4.50769231 4.6 -4.50769231 4.6 -1.9375 1.5625 C-0.9784375 0.7890625 -0.9784375 0.7890625 0 0 Z " fill="#216585" transform="translate(280,76)"/>
<path d="M0 0 C0.5775 0.36480469 1.155 0.72960937 1.75 1.10546875 C-3.62899794 4.65331846 -7.83076669 5.81434706 -14.25 6.10546875 C-11.75038341 4.02245492 -9.09325981 2.35782256 -6.25 0.79296875 C-5.59 0.42558594 -4.93 0.05820313 -4.25 -0.3203125 C-2.25 -0.89453125 -2.25 -0.89453125 0 0 Z " fill="#3889A9" transform="translate(191.25,144.89453125)"/>
<path d="M0 0 C2 1 2 1 2 1 Z M0 1 C0.33 2.98 0.66 4.96 1 7 C-1.31 7 -3.62 7 -6 7 C-6.33 5.02 -6.66 3.04 -7 1 C-4.3333581 -0.33332095 -2.83319697 0.32897967 0 1 Z " fill="#0A567F" transform="translate(316,73)"/>
<path d="M0 0 C1.32 0.33 2.64 0.66 4 1 C4 1.66 4 2.32 4 3 C5.32 2.67 6.64 2.34 8 2 C7.67 3.32 7.34 4.64 7 6 C4.03 6 1.06 6 -2 6 C-1.34 4.02 -0.68 2.04 0 0 Z " fill="#2C9069" transform="translate(109,315)"/>
<path d="M0 0 C1.64826111 2.96687001 2.44271087 5.65626525 3 9 C0.16032769 9 -2.23735711 8.59732819 -5 8 C-3.68 7.34 -2.36 6.68 -1 6 C-1.33 5.34 -1.66 4.68 -2 4 C-3.98 4.99 -3.98 4.99 -6 6 C-4 4 -2 2 0 0 Z " fill="#3E9DC5" transform="translate(107,86)"/>
<path d="M0 0 C-0.54226981 3.79588866 -2.20127563 5.47211993 -5 8 C-5.66 7.67 -6.32 7.34 -7 7 C-6.625 4.0625 -6.625 4.0625 -6 1 C-4 0 -4 0 0 0 Z " fill="#3F91B3" transform="translate(263,72)"/>
<path d="M0 0 C-3.69123571 3.69123571 -9.59654621 3.88706238 -14.66015625 4.125 C-16.77384822 4.125 -18.88740691 4.06814816 -21 4 C-21 3.67 -21 3.34 -21 3 C-19.783125 2.87625 -18.56625 2.7525 -17.3125 2.625 C-14.7417466 2.31434854 -12.90371028 1.95907687 -10.5 0.9375 C-6.9169038 -0.40616107 -3.81368365 -0.12927741 0 0 Z " fill="#82B68C" transform="translate(257,319)"/>
<path d="M0 0 C-0.33 0.99 -0.66 1.98 -1 3 C-1.99 3 -2.98 3 -4 3 C-4.33 3.99 -4.66 4.98 -5 6 C-5.66 6 -6.32 6 -7 6 C-7.4021875 7.175625 -7.4021875 7.175625 -7.8125 8.375 C-9 11 -9 11 -12 13 C-10.42378406 8.66540615 -8.52062104 4.85506748 -6 1 C-3.7402279 0.00304172 -2.4328094 0 0 0 Z " fill="#72B66A" transform="translate(321,266)"/>
<path d="M0 0 C-0.42152344 0.48210937 -0.84304688 0.96421875 -1.27734375 1.4609375 C-1.82519531 2.09257812 -2.37304688 2.72421875 -2.9375 3.375 C-3.48277344 4.00148438 -4.02804687 4.62796875 -4.58984375 5.2734375 C-6.06958624 6.95632334 -6.06958624 6.95632334 -7 9 C-7.66 8.67 -8.32 8.34 -9 8 C-8.51566469 2.55122777 -8.51566469 2.55122777 -6.1875 0.0625 C-3.55447732 -1.21639673 -2.71057059 -0.823968 0 0 Z " fill="#8AC082" transform="translate(329,260)"/>
<path d="M0 0 C-2.1732987 2.4992935 -3.68300548 3.60976535 -7 4 C-8.67293936 3.69972883 -10.33985384 3.36442233 -12 3 C-13.6662553 2.9629721 -15.33401319 2.95240038 -17 3 C-16.67 2.34 -16.34 1.68 -16 1 C-14.109375 0.62109375 -14.109375 0.62109375 -11.75 0.4375 C-9.10901057 0.20657088 -6.66180274 -0.07195686 -4.0625 -0.625 C-2 -1 -2 -1 0 0 Z " fill="#78B47E" transform="translate(294,187)"/>
<path d="M0 0 C1.084021 0.00523682 2.16804199 0.01047363 3.28491211 0.01586914 C5.03964844 0.02070312 5.03964844 0.02070312 6.82983398 0.02563477 C8.67738281 0.03820312 8.67738281 0.03820312 10.56225586 0.05102539 C12.41560547 0.05779297 12.41560547 0.05779297 14.30639648 0.06469727 C17.37089703 0.07652931 20.43530307 0.09301366 23.49975586 0.11352539 C23.49975586 0.77352539 23.49975586 1.43352539 23.49975586 2.11352539 C15.57975586 2.11352539 7.65975586 2.11352539 -0.50024414 2.11352539 C-0.83024414 2.77352539 -1.16024414 3.43352539 -1.50024414 4.11352539 C-1.50024414 3.45352539 -1.50024414 2.79352539 -1.50024414 2.11352539 C-2.16024414 1.78352539 -2.82024414 1.45352539 -3.50024414 1.11352539 C-2.50024414 0.11352539 -2.50024414 0.11352539 0 0 Z " fill="#5B9A6F" transform="translate(277.500244140625,121.886474609375)"/>
<path d="M0 0 C4 4.75 4 4.75 4 7 C2.35666496 8.03789581 0.68756133 9.03567924 -1 10 C-1.66 10.66 -2.32 11.32 -3 12 C-2.42415568 9.61435923 -1.77772405 7.33317216 -1 5 C-1.66 4.67 -2.32 4.34 -3 4 C-2.01 2.68 -1.02 1.36 0 0 Z " fill="#105C70" transform="translate(34,280)"/>
<path d="M0 0 C0.33 0.99 0.66 1.98 1 3 C1.66 3.33 2.32 3.66 3 4 C1.39125 4.37125 1.39125 4.37125 -0.25 4.75 C-3.99649437 5.99883146 -5.52073882 7.02488658 -8 10 C-8.99 9.34 -9.98 8.68 -11 8 C-9.11494586 4.67343387 -8.13182228 4.04091036 -4.375 2.875 C-3.26125 2.58625 -2.1475 2.2975 -1 2 C-0.67 1.34 -0.34 0.68 0 0 Z " fill="#0D6E7D" transform="translate(51,269)"/>
<path d="M0 0 C0.33 1.32 0.66 2.64 1 4 C-2.82517513 6.39073445 -6.59665524 6.55966552 -11 7 C-8.81482901 4.59424393 -6.74080329 3.20464419 -3.8125 1.8125 C-2.73935547 1.29623047 -2.73935547 1.29623047 -1.64453125 0.76953125 C-1.10183594 0.51558594 -0.55914062 0.26164063 0 0 Z " fill="#4297B4" transform="translate(203,137)"/>
<path d="M0 0 C-1.75 3.875 -1.75 3.875 -4 5 C-5.99960012 5.039992 -8.00047242 5.04346799 -10 5 C-5 -1.5 -5 -1.5 0 0 Z " fill="#70A57B" transform="translate(262,261)"/>
<path d="M0 0 C0 0.66 0 1.32 0 2 C-6.15384615 6.06153846 -6.15384615 6.06153846 -10.4375 5.75 C-11.283125 5.5025 -12.12875 5.255 -13 5 C-9.32049748 1.76203778 -4.94759086 0 0 0 Z " fill="#79B390" transform="translate(237,204)"/>
<path d="M0 0 C0.66 0 1.32 0 2 0 C1.98839844 0.90363281 1.97679687 1.80726563 1.96484375 2.73828125 C1.95582031 3.91777344 1.94679687 5.09726563 1.9375 6.3125 C1.92589844 7.48425781 1.91429687 8.65601563 1.90234375 9.86328125 C1.85100102 13.03059195 1.85100102 13.03059195 3 16 C1.68 16.33 0.36 16.66 -1 17 C-0.67 11.39 -0.34 5.78 0 0 Z " fill="#41855E" transform="translate(236,176)"/>
<path d="M0 0 C0.66 0.33 1.32 0.66 2 1 C2 2.65 2 4.3 2 6 C1.01 6 0.02 6 -1 6 C-1 8.31 -1 10.62 -1 13 C-0.34 13.33 0.32 13.66 1 14 C-0.32 13.67 -1.64 13.34 -3 13 C-3.31563182 7.73946963 -2.66590937 4.55426184 0 0 Z " fill="#2F5663" transform="translate(15,311)"/>
<path d="M0 0 C2.64 0.33 5.28 0.66 8 1 C5.96180154 3.03819846 4.70582202 3.67841059 2.0625 4.6875 C1.37285156 4.95949219 0.68320312 5.23148437 -0.02734375 5.51171875 C-2 6 -2 6 -5 5 C-4 3 -4 3 -1 2 C-0.67 1.34 -0.34 0.68 0 0 Z " fill="#77AC7C" transform="translate(263,313)"/>
<path d="M0 0 C2.4375 0.375 2.4375 0.375 5 1 C6.24546405 3.49092811 5.7767578 4.41080733 5 7 C2.69 7 0.38 7 -2 7 C-1.01 6.67 -0.02 6.34 1 6 C0.67 4.02 0.34 2.04 0 0 Z " fill="#0F7C82" transform="translate(78,297)"/>
<path d="M0 0 C0.33 0.99 0.66 1.98 1 3 C-2.40431947 5.26954631 -4.16524202 5.36549949 -8.1875 5.625 C-9.27417969 5.69976562 -10.36085937 5.77453125 -11.48046875 5.8515625 C-12.72763672 5.92503906 -12.72763672 5.92503906 -14 6 C-11.09091772 4.06061181 -8.59137621 3.03225043 -5.3125 1.875 C-4.31863281 1.52179688 -3.32476562 1.16859375 -2.30078125 0.8046875 C-1.54152344 0.53914062 -0.78226563 0.27359375 0 0 Z " fill="#62AA90" transform="translate(159,231)"/>
<path d="M0 0 C0.66 0 1.32 0 2 0 C1.46515599 5.34844008 -0.46690767 9.35796103 -3 14 C-3.66 13.67 -4.32 13.34 -5 13 C-4.67 12.01 -4.34 11.02 -4 10 C-3.34 10 -2.68 10 -2 10 C-2.04125 8.906875 -2.0825 7.81375 -2.125 6.6875 C-2 3 -2 3 0 0 Z " fill="#91BC8C" transform="translate(340,230)"/>
<path d="M0 0 C0 0.66 0 1.32 0 2 C-1.26839526 2.50615298 -2.53983102 3.00469099 -3.8125 3.5 C-4.87404297 3.91765625 -4.87404297 3.91765625 -5.95703125 4.34375 C-8 5 -8 5 -11 5 C-9.07089686 -0.78730941 -5.38986894 -0.20339128 0 0 Z " fill="#6AA986" transform="translate(185,211)"/>
<path d="M0 0 C0.928125 0.061875 1.85625 0.12375 2.8125 0.1875 C-3.00870626 4.06830417 -8.17107379 6.60279782 -15.1875 7.1875 C-14.5275 6.8575 -13.8675 6.5275 -13.1875 6.1875 C-13.1875 5.5275 -13.1875 4.8675 -13.1875 4.1875 C-12.094375 4.084375 -11.00125 3.98125 -9.875 3.875 C-6.26751834 3.56206435 -6.26751834 3.56206435 -4.625 1.625 C-3.1875 0.1875 -3.1875 0.1875 0 0 Z " fill="#549BB8" transform="translate(168.1875,184.8125)"/>
<path d="M0 0 C0.33 0.99 0.66 1.98 1 3 C0.01 3.66 -0.98 4.32 -2 5 C-2.2502157 8.08365871 -2.2502157 8.08365871 -2 11 C-2.66 11 -3.32 11 -4 11 C-4.66666667 8.33333333 -5.33333333 5.66666667 -6 3 C-2.25 0 -2.25 0 0 0 Z " fill="#1D7293" transform="translate(238,115)"/>
<path d="M0 0 C0.99 0 1.98 0 3 0 C3 1.32 3 2.64 3 4 C-1.29 4 -5.58 4 -10 4 C-6.99382731 0.99382731 -4.17618402 1.40414684 0 1 C0 0.67 0 0.34 0 0 Z " fill="#5EAB68" transform="translate(266,232)"/>
<path d="M0 0 C0.99 0 1.98 0 3 0 C3 0.66 3 1.32 3 2 C2.34 2 1.68 2 1 2 C0.34 5.3 -0.32 8.6 -1 12 C-1.99 11.67 -2.98 11.34 -4 11 C-3.71758359 9.53984709 -3.42373386 8.08190207 -3.125 6.625 C-2.96257812 5.81289062 -2.80015625 5.00078125 -2.6328125 4.1640625 C-2 2 -2 2 0 0 Z " fill="#71B869" transform="translate(339,228)"/>
<path d="M0 0 C1.32 0 2.64 0 4 0 C4 0.66 4 1.32 4 2 C5.65 1.67 7.3 1.34 9 1 C9 2.32 9 3.64 9 5 C2.25 4.125 2.25 4.125 0 3 C0 2.01 0 1.02 0 0 Z " fill="#0B88BB" transform="translate(126,128)"/>
<path d="M0 0 C0.66 0.33 1.32 0.66 2 1 C1.01 1.33 0.02 1.66 -1 2 C-0.67 4.31 -0.34 6.62 0 9 C-1.98 8.34 -3.96 7.68 -6 7 C-5.8125 5.1875 -5.8125 5.1875 -5 3 C-2.5625 1.1875 -2.5625 1.1875 0 0 Z " fill="#3D6984" transform="translate(282,52)"/>
<path d="M0 0 C0.99 0.33 1.98 0.66 3 1 C3.6875 3.0625 3.6875 3.0625 4 5 C3.34 5 2.68 5 2 5 C2 5.66 2 6.32 2 7 C0.125 7.625 0.125 7.625 -2 8 C-2.66 7.34 -3.32 6.68 -4 6 C-3.34 6 -2.68 6 -2 6 C-1.34 4.02 -0.68 2.04 0 0 Z " fill="#1C8881" transform="translate(103,289)"/>
<path d="M0 0 C0 0.66 0 1.32 0 2 C-0.78375 2.28875 -1.5675 2.5775 -2.375 2.875 C-5.09671632 3.84912254 -5.09671632 3.84912254 -7 6 C-10.625 5.625 -10.625 5.625 -14 5 C-11.56585763 3.37723842 -9.68680554 2.38255208 -7 1.375 C-6.319375 1.11460937 -5.63875 0.85421875 -4.9375 0.5859375 C-3 0 -3 0 0 0 Z " fill="#78AB93" transform="translate(201,217)"/>
<path d="M0 0 C1.32 1.32 2.64 2.64 4 4 C1.69 4 -0.62 4 -3 4 C-3.33 4.99 -3.66 5.98 -4 7 C-4.99 6.34 -5.98 5.68 -7 5 C-7 4.34 -7 3.68 -7 3 C-4.69 2.01 -2.38 1.02 0 0 Z " fill="#65A47C" transform="translate(245,200)"/>
<path d="M0 0 C0.33 0.99 0.66 1.98 1 3 C1.66 3 2.32 3 3 3 C3 7.29 3 11.58 3 16 C0.65229357 12.47844036 0.62330386 10.49228157 0.375 6.3125 C0.30023438 5.13300781 0.22546875 3.95351562 0.1484375 2.73828125 C0.09945312 1.83464844 0.05046875 0.93101562 0 0 Z " fill="#3A6A7E" transform="translate(56,163)"/>
<path d="M0 0 C0 0.66 0 1.32 0 2 C-0.99 2 -1.98 2 -3 2 C-3.268125 2.61875 -3.53625 3.2375 -3.8125 3.875 C-5 6 -5 6 -8 8 C-8.99 8 -9.98 8 -11 8 C-9.83630874 4.50892621 -9.11026462 4.14777237 -6.0625 2.3125 C-5.35222656 1.87550781 -4.64195313 1.43851562 -3.91015625 0.98828125 C-2 0 -2 0 0 0 Z " fill="#5FA3BA" transform="translate(120,79)"/>
<path d="M0 0 C-0.33 1.32 -0.66 2.64 -1 4 C-2.45463481 4.38909985 -3.91391207 4.76088029 -5.375 5.125 C-6.18710938 5.33382813 -6.99921875 5.54265625 -7.8359375 5.7578125 C-8.55007812 5.83773438 -9.26421875 5.91765625 -10 6 C-10.66 5.34 -11.32 4.68 -12 4 C-10.3767313 3.3291288 -8.75132422 2.66342971 -7.125 2 C-6.22007812 1.62875 -5.31515625 1.2575 -4.3828125 0.875 C-2 0 -2 0 0 0 Z " fill="#69A387" transform="translate(178,286)"/>
<path d="M0 0 C-1.1875 2.4375 -1.1875 2.4375 -3 5 C-5.6875 5.8125 -5.6875 5.8125 -8 6 C-8.33 4.35 -8.66 2.7 -9 1 C-6.04335481 -0.4783226 -3.25770263 -0.06032783 0 0 Z " fill="#198075" transform="translate(118,249)"/>
<path d="M0 0 C-0.99 0.495 -0.99 0.495 -2 1 C-2 1.66 -2 2.32 -2 3 C-5.1964086 4.06546953 -7.65747276 4.07427838 -11 4 C-11.33 3.01 -11.66 2.02 -12 1 C-7.9472484 0.01751476 -4.16138263 -0.08159574 0 0 Z " fill="#328D71" transform="translate(156,236)"/>
<path d="M0 0 C0.33 0.66 0.66 1.32 1 2 C1.66 2.33 2.32 2.66 3 3 C-0.63423209 5.32590854 -3.77088331 5.16265833 -8 5 C-5.47211993 2.20127563 -3.79588866 0.54226981 0 0 Z " fill="#62A176" transform="translate(261,181)"/>
<path d="M0 0 C0.66 0 1.32 0 2 0 C2.34833144 4.87664009 1.41685712 7.77050005 -1 12 C-2.1875 10.5 -2.1875 10.5 -3 8 C-2.27101296 5.21175762 -1.1843275 2.62334908 0 0 Z " fill="#3A728A" transform="translate(61,138)"/>
<path d="M0 0 C1.2684375 0.12375 1.2684375 0.12375 2.5625 0.25 C3.2225 1.24 3.8825 2.23 4.5625 3.25 C3.9025 3.25 3.2425 3.25 2.5625 3.25 C2.5625 4.24 2.5625 5.23 2.5625 6.25 C0.9125 5.92 -0.7375 5.59 -2.4375 5.25 C-3 3.3125 -3 3.3125 -3.4375 1.25 C-2.4375 0.25 -2.4375 0.25 0 0 Z " fill="#0A7BA8" transform="translate(235.4375,135.75)"/>
<path d="M0 0 C0.90685547 0.29970703 0.90685547 0.29970703 1.83203125 0.60546875 C0.54575414 1.77807486 -0.74716658 2.94339705 -2.04296875 4.10546875 C-2.76226562 4.75515625 -3.4815625 5.40484375 -4.22265625 6.07421875 C-6.16796875 7.60546875 -6.16796875 7.60546875 -8.16796875 7.60546875 C-7.83582724 4.50548129 -7.11346755 3.55096755 -4.85546875 1.29296875 C-2.16796875 -0.39453125 -2.16796875 -0.39453125 0 0 Z " fill="#4289A7" transform="translate(260.16796875,123.39453125)"/>
<path d="M0 0 C0.33 0.99 0.66 1.98 1 3 C1.5775 2.484375 2.155 1.96875 2.75 1.4375 C5 0 5 0 7.25 0.3125 C7.8275 0.539375 8.405 0.76625 9 1 C6.875 3.0625 6.875 3.0625 4 5 C0.6875 4.75 0.6875 4.75 -2 4 C-2 3.01 -2 2.02 -2 1 C-1.34 0.67 -0.68 0.34 0 0 Z " fill="#2F8DB7" transform="translate(227,97)"/>
<path d="M0 0 C1.65 0 3.3 0 5 0 C-3.44827586 7 -3.44827586 7 -7 7 C-7 6.01 -7 5.02 -7 4 C-5.02 3.67 -3.04 3.34 -1 3 C-0.67 2.01 -0.34 1.02 0 0 Z " fill="#7EAE83" transform="translate(278,307)"/>
<path d="M0 0 C0 0.66 0 1.32 0 2 C-5.12325529 4.45489316 -9.33895411 5.50341703 -15 6 C-12.61874536 3.61874536 -10.66142433 2.99813759 -7.5 1.875 C-6.5203125 1.52179688 -5.540625 1.16859375 -4.53125 0.8046875 C-2 0 -2 0 0 0 Z " fill="#57999F" transform="translate(70,263)"/>
<path d="M0 0 C0.99 1.32 1.98 2.64 3 4 C1.6875 6 1.6875 6 0 8 C-0.99 8 -1.98 8 -3 8 C-3.33 7.01 -3.66 6.02 -4 5 C-2.0625 2.3125 -2.0625 2.3125 0 0 Z " fill="#669B6F" transform="translate(267,249)"/>
<path d="M0 0 C-0.99 0 -1.98 0 -3 0 C-3 0.66 -3 1.32 -3 2 C-10.28571429 5.42857143 -10.28571429 5.42857143 -15 5 C-10.87384475 1.53402959 -5.43913747 -2.39322049 0 0 Z " fill="#5EA4C1" transform="translate(136,74)"/>
<path d="M0 0 C1.57043101 0.01330874 3.14079971 0.03717648 4.7109375 0.0703125 C5.51273438 0.07933594 6.31453125 0.08835937 7.140625 0.09765625 C9.12252273 0.12125027 11.10426731 0.15712185 13.0859375 0.1953125 C13.0859375 0.5253125 13.0859375 0.8553125 13.0859375 1.1953125 C11.66960414 1.36478829 10.25285217 1.53076757 8.8359375 1.6953125 C7.65257812 1.83453125 7.65257812 1.83453125 6.4453125 1.9765625 C2.34102386 2.35709257 -1.79390834 2.1953125 -5.9140625 2.1953125 C-3.9140625 0.1953125 -3.9140625 0.1953125 0 0 Z " fill="#1990C0" transform="translate(145.9140625,72.8046875)"/>
<path d="M0 0 C0.33 0.99 0.66 1.98 1 3 C-3.75 6 -3.75 6 -6 6 C-6 4.35 -6 2.7 -6 1 C-3 0 -3 0 0 0 Z " fill="#419881" transform="translate(139,239)"/>
<path d="M0 0 C0.33 0 0.66 0 1 0 C1 1.98 1 3.96 1 6 C0.071875 6.12375 0.071875 6.12375 -0.875 6.25 C-3.18437567 6.81258459 -3.18437567 6.81258459 -4.25 9.0625 C-4.4975 9.701875 -4.745 10.34125 -5 11 C-5.33 10.34 -5.66 9.68 -6 9 C-5.02501855 7.4972763 -4.04490611 5.99788037 -3.0625 4.5 C-2.51722656 3.6646875 -1.97195312 2.829375 -1.41015625 1.96875 C-0.94480469 1.3190625 -0.47945313 0.669375 0 0 Z " fill="#588FA7" transform="translate(68,127)"/>
<path d="M0 0 C2.4375 0.8125 2.4375 0.8125 5 2 C5.33 2.99 5.66 3.98 6 5 C5.01 5 4.02 5 3 5 C3 5.66 3 6.32 3 7 C2.34 7 1.68 7 1 7 C-0.0625 5.1875 -0.0625 5.1875 -1 3 C-0.67 2.01 -0.34 1.02 0 0 Z " fill="#0D70A1" transform="translate(263,112)"/>
<path d="M0 0 C-0.33 0.99 -0.66 1.98 -1 3 C-3.64 3.33 -6.28 3.66 -9 4 C-8.67 3.01 -8.34 2.02 -8 1 C-5.29120665 -0.35439668 -2.99066732 -0.06501451 0 0 Z " fill="#297379" transform="translate(79,261)"/>
<path d="M0 0 C2 2 2 2 2.125 4.625 C2.08375 5.40875 2.0425 6.1925 2 7 C-0.64 6.67 -3.28 6.34 -6 6 C-5.67 5.34 -5.34 4.68 -5 4 C-2.4375 3.375 -2.4375 3.375 0 3 C0 2.01 0 1.02 0 0 Z " fill="#3E9268" transform="translate(201,216)"/>
<path d="M0 0 C0.99 0.33 1.98 0.66 3 1 C2.4409112 4.24271506 1.5867822 5.93057424 -1 8 C-1.66 8 -2.32 8 -3 8 C-2.74438677 5.6568787 -2.40729228 3.32156597 -2 1 C-1.34 0.67 -0.68 0.34 0 0 Z " fill="#15759A" transform="translate(206,135)"/>
<path d="M0 0 C1.4540625 0.0309375 1.4540625 0.0309375 2.9375 0.0625 C3.2675 0.7225 3.5975 1.3825 3.9375 2.0625 C-0.5175 3.5475 -0.5175 3.5475 -5.0625 5.0625 C-3.81634615 0.07788462 -3.81634615 0.07788462 0 0 Z " fill="#329AB8" transform="translate(147.0625,123.9375)"/>
<path d="M0 0 C6.6 0 13.2 0 20 0 C20.33 0.99 20.66 1.98 21 3 C20.42475586 2.84152588 19.84951172 2.68305176 19.25683594 2.51977539 C17.09060223 2.02086674 15.10677317 1.80111676 12.890625 1.68359375 C12.13652344 1.64169922 11.38242187 1.59980469 10.60546875 1.55664062 C9.43951172 1.49766602 9.43951172 1.49766602 8.25 1.4375 C7.06083984 1.37272461 7.06083984 1.37272461 5.84765625 1.30664062 C3.89862185 1.20097009 1.94933252 1.10002034 0 1 C0 0.67 0 0.34 0 0 Z " fill="#59AE6A" transform="translate(279,123)"/>
<path d="M0 0 C0 1.65 0 3.3 0 5 C-2.64 5.33 -5.28 5.66 -8 6 C-7 3 -7 3 -4 1.3125 C-1 0 -1 0 0 0 Z " fill="#15779F" transform="translate(263,118)"/>
<path d="M0 0 C0.66 0.33 1.32 0.66 2 1 C-2 7.57142857 -2 7.57142857 -6 9 C-5.52797514 4.75177626 -3.03344482 2.80010291 0 0 Z " fill="#366880" transform="translate(269,87)"/>
<path d="M0 0 C2.97 0.495 2.97 0.495 6 1 C5.01 1.495 5.01 1.495 4 2 C3.67 2.99 3.34 3.98 3 5 C1.02 5 -0.96 5 -3 5 C-2.34 4.67 -1.68 4.34 -1 4 C-0.34786708 1.97536745 -0.34786708 1.97536745 0 0 Z " fill="#59A869" transform="translate(255,314)"/>
<path d="M0 0 C-0.33 1.32 -0.66 2.64 -1 4 C-3.375 4.625 -3.375 4.625 -6 5 C-6.66 4.34 -7.32 3.68 -8 3 C-5.53387212 -0.1151089 -3.89156016 -0.31553191 0 0 Z " fill="#1E836D" transform="translate(130,282)"/>
<path d="M0 0 C-0.33 1.32 -0.66 2.64 -1 4 C-5.05431692 5.15837626 -7.21812119 4.83691257 -11 3 C-11 2.67 -11 2.34 -11 2 C-9.5422647 1.664061 -8.08378894 1.33133376 -6.625 1 C-5.40683594 0.7215625 -5.40683594 0.7215625 -4.1640625 0.4375 C-2 0 -2 0 0 0 Z " fill="#84B28E" transform="translate(249,268)"/>
<path d="M0 0 C0.33 0.66 0.66 1.32 1 2 C-0.32 2.33 -1.64 2.66 -3 3 C-3 3.66 -3 4.32 -3 5 C-4.65 5.33 -6.3 5.66 -8 6 C-7.67 4.68 -7.34 3.36 -7 2 C-4.69 1.34 -2.38 0.68 0 0 Z " fill="#438F91" transform="translate(88,256)"/>
<path d="M0 0 C1.65 0.33 3.3 0.66 5 1 C3.68 3.64 2.36 6.28 1 9 C-1 6 -1 6 -0.625 2.8125 C-0.41875 1.884375 -0.2125 0.95625 0 0 Z " fill="#2D6A5B" transform="translate(197,174)"/>
<path d="M0 0 C2.0625 0.4375 2.0625 0.4375 4 1 C4 1.66 4 2.32 4 3 C1.1875 4.5625 1.1875 4.5625 -2 6 C-2.99 5.67 -3.98 5.34 -5 5 C-4.34 5 -3.68 5 -3 5 C-2.5359375 4.0409375 -2.5359375 4.0409375 -2.0625 3.0625 C-1 1 -1 1 0 0 Z " fill="#419482" transform="translate(132,281)"/>
<path d="M0 0 C0.99 0.33 1.98 0.66 3 1 C2.34 1 1.68 1 1 1 C0.67 2.32 0.34 3.64 0 5 C-0.66 5 -1.32 5 -2 5 C-2.33 5.99 -2.66 6.98 -3 8 C-3.66 6.68 -4.32 5.36 -5 4 C-4.34 4 -3.68 4 -3 4 C-3 3.34 -3 2.68 -3 2 C-2.01 2 -1.02 2 0 2 C0 1.34 0 0.68 0 0 Z " fill="#3D8FAF" transform="translate(232,143)"/>
<path d="M0 0 C0.99 0.33 1.98 0.66 3 1 C2.835 1.928125 2.67 2.85625 2.5 3.8125 C1.92251612 6.95621353 1.92251612 6.95621353 2 10 C1.34 9.67 0.68 9.34 0 9 C-0.44921875 7.1875 -0.44921875 7.1875 -0.6875 5 C-0.77386719 4.278125 -0.86023438 3.55625 -0.94921875 2.8125 C-0.96597656 2.214375 -0.98273438 1.61625 -1 1 C-0.67 0.67 -0.34 0.34 0 0 Z " fill="#1B80A4" transform="translate(74,118)"/>
<path d="M0 0 C0.66 0.33 1.32 0.66 2 1 C2 1.99 2 2.98 2 4 C1.4225 4.103125 0.845 4.20625 0.25 4.3125 C-2.32049158 5.09792798 -3.93657284 6.30504197 -6 8 C-6 6.68 -6 5.36 -6 4 C-3.5625 2.3125 -3.5625 2.3125 -1 1 C-0.67 0.67 -0.34 0.34 0 0 Z " fill="#11719E" transform="translate(268,92)"/>
<path d="M0 0 C1.65 0 3.3 0 5 0 C2.42215154 2.64752004 0.08351902 4.94432065 -3 7 C-3 5.68 -3 4.36 -3 3 C-2.01 3 -1.02 3 0 3 C0 2.01 0 1.02 0 0 Z " fill="#60A3BC" transform="translate(251,81)"/>
<path d="M0 0 C0.66 0 1.32 0 2 0 C0.76075855 4.95696581 -0.78577758 7.11658466 -5 10 C-4.49890042 5.61537866 -3.01704885 3.1999003 0 0 Z " fill="#4988A0" transform="translate(286,69)"/>
<path d="M0 0 C0.66 0 1.32 0 2 0 C1.67 4.29 1.34 8.58 1 13 C-1.45410358 9.31884463 -1.23287843 7.34706402 -1 3 C-0.67 2.01 -0.34 1.02 0 0 Z " fill="#135E83" transform="translate(323,64)"/>
<path d="M0 0 C-2 3 -2 3 -5.125 3.6875 C-6.07375 3.790625 -7.0225 3.89375 -8 4 C-8 3.01 -8 2.02 -8 1 C-4.93251126 -0.86240388 -3.40254489 -1.2151946 0 0 Z " fill="#286D91" transform="translate(302,45)"/>
<path d="M0 0 C0.99 0.33 1.98 0.66 3 1 C3 3.31 3 5.62 3 8 C2.01 7.34 1.02 6.68 0 6 C-0.99 6.495 -0.99 6.495 -2 7 C-1.125 2.25 -1.125 2.25 0 0 Z " fill="#115D81" transform="translate(307,39)"/>
<path d="M0 0 C0.33 1.65 0.66 3.3 1 5 C0.01 5.33 -0.98 5.66 -2 6 C-2 5.01 -2 4.02 -2 3 C-3.32 2.34 -4.64 1.68 -6 1 C-4 0 -4 0 0 0 Z " fill="#5C8DA1" transform="translate(329,30)"/>
<path d="M0 0 C0.99 0.33 1.98 0.66 3 1 C0.69 3.31 -1.62 5.62 -4 8 C-4.33 6.68 -4.66 5.36 -5 4 C-4.0409375 3.8453125 -4.0409375 3.8453125 -3.0625 3.6875 C-2.381875 3.460625 -1.70125 3.23375 -1 3 C-0.67 2.01 -0.34 1.02 0 0 Z " fill="#8DB78E" transform="translate(294,294)"/>
<path d="M0 0 C1.125 1.75 1.125 1.75 2 4 C1.125 6.25 1.125 6.25 0 8 C-0.66 8 -1.32 8 -2 8 C-2.66 6.35 -3.32 4.7 -4 3 C-2.68 2.01 -1.36 1.02 0 0 Z " fill="#115D71" transform="translate(28,293)"/>
<path d="M0 0 C1.8871875 0.0309375 1.8871875 0.0309375 3.8125 0.0625 C1.22323669 2.65176331 -0.21455279 2.43648043 -3.8125 2.6875 C-4.81539063 2.76226562 -5.81828125 2.83703125 -6.8515625 2.9140625 C-8.00785156 2.98753906 -8.00785156 2.98753906 -9.1875 3.0625 C-6.30623588 0.18123588 -3.90053134 -0.06394314 0 0 Z " fill="#478D84" transform="translate(117.1875,246.9375)"/>
<path d="M0 0 C-2 3 -2 3 -3.9453125 3.51171875 C-4.66460937 3.56972656 -5.38390625 3.62773437 -6.125 3.6875 C-8.043125 3.8421875 -8.043125 3.8421875 -10 4 C-10 3.34 -10 2.68 -10 2 C-8.71211992 1.46987262 -7.41953322 0.9511671 -6.125 0.4375 C-5.40570313 0.14746094 -4.68640625 -0.14257812 -3.9453125 -0.44140625 C-2 -1 -2 -1 0 0 Z " fill="#77A58C" transform="translate(212,214)"/>
<path d="M0 0 C-2.96687001 1.64826111 -5.65626525 2.44271087 -9 3 C-9 2.01 -9 1.02 -9 0 C-9.66 -0.33 -10.32 -0.66 -11 -1 C-6.74938644 -2.41687119 -4.28148375 -1.19320039 0 0 Z " fill="#3893AF" transform="translate(144,196)"/>
<path d="M0 0 C7.75 0.75 7.75 0.75 10 3 C6.69903842 3.8252404 4.1967 4.37001429 1 3 C0.67 2.01 0.34 1.02 0 0 Z " fill="#A3CAA2" transform="translate(315,178)"/>
<path d="M0 0 C0.33 0.66 0.66 1.32 1 2 C-4.95703125 3.7578125 -4.95703125 3.7578125 -7 4 C-7.99 3.34 -8.98 2.68 -10 2 C-6.5980513 -0.09350689 -3.94727588 -0.17942163 0 0 Z " fill="#A3CCA5" transform="translate(312,178)"/>
<path d="M0 0 C0.33 0.66 0.66 1.32 1 2 C-5.28571429 4.42857143 -5.28571429 4.42857143 -9 3 C-5.92807025 0.26939578 -4.09590633 -0.34132553 0 0 Z " fill="#7DB288" transform="translate(283,175)"/>
<path d="M0 0 C1.36125 0.37125 1.36125 0.37125 2.75 0.75 C-1.69 3.71 -1.69 3.71 -4.25 4.75 C-5.24 4.42 -6.23 4.09 -7.25 3.75 C-4.05 -0.31153846 -4.05 -0.31153846 0 0 Z " fill="#8EB890" transform="translate(292.25,171.25)"/>
<path d="M0 0 C2.3125 0.1875 2.3125 0.1875 4 1 C0.67692308 4.93846154 0.67692308 4.93846154 -2.75 5.25 C-3.4925 5.1675 -4.235 5.085 -5 5 C-2.75 2.4375 -2.75 2.4375 0 0 Z " fill="#2F6A84" transform="translate(249,105)"/>
<path d="M0 0 C0.33 1.32 0.66 2.64 1 4 C-1.97 6.475 -1.97 6.475 -5 9 C-4.42647107 5.12867972 -2.51295648 2.91827204 0 0 Z " fill="#2F7EA0" transform="translate(274,83)"/>
<path d="M0 0 C1.65 0 3.3 0 5 0 C5.33 0.99 5.66 1.98 6 3 C6.99 3 7.98 3 9 3 C9.33 3.99 9.66 4.98 10 6 C8.68 6.33 7.36 6.66 6 7 C6.33 6.34 6.66 5.68 7 5 C3.535 3.02 3.535 3.02 0 1 C0 0.67 0 0.34 0 0 Z " fill="#528DAA" transform="translate(282,61)"/>
<path d="M0 0 C-0.66 1.32 -1.32 2.64 -2 4 C-4.31 4 -6.62 4 -9 4 C-3.7826087 0 -3.7826087 0 0 0 Z " fill="#78B393" transform="translate(216,271)"/>
<path d="M0 0 C6.4 -0.36923077 6.4 -0.36923077 9.4375 1.5 C9.953125 1.995 10.46875 2.49 11 3 C9.54257537 3.08096803 8.08387193 3.13917774 6.625 3.1875 C5.81289062 3.22230469 5.00078125 3.25710937 4.1640625 3.29296875 C3.44992188 3.19628906 2.73578125 3.09960938 2 3 C1.34 2.01 0.68 1.02 0 0 Z " fill="#4491AE" transform="translate(93,203)"/>
<path d="M0 0 C2.64 0 5.28 0 8 0 C5.3144406 2.6855594 2.62378672 3.06049974 -1 4 C-1.33 3.34 -1.66 2.68 -2 2 C-1.34 2 -0.68 2 0 2 C0 1.34 0 0.68 0 0 Z " fill="#73A591" transform="translate(209,200)"/>
<path d="M0 0 C-0.804375 0.45375 -1.60875 0.9075 -2.4375 1.375 C-5.08856572 2.74725665 -5.08856572 2.74725665 -6 5 C-6.99 5 -7.98 5 -9 5 C-9.33 4.01 -9.66 3.02 -10 2 C-8.71211992 1.46987262 -7.41953322 0.9511671 -6.125 0.4375 C-5.40570313 0.14746094 -4.68640625 -0.14257812 -3.9453125 -0.44140625 C-2 -1 -2 -1 0 0 Z " fill="#88B394" transform="translate(267,194)"/>
<path d="M0 0 C0.99 0 1.98 0 3 0 C3 4.95 3 9.9 3 15 C2.34 14.67 1.68 14.34 1 14 C1.01160156 13.24074219 1.02320313 12.48148438 1.03515625 11.69921875 C1.04417969 10.70535156 1.05320313 9.71148437 1.0625 8.6875 C1.07990234 7.20830078 1.07990234 7.20830078 1.09765625 5.69921875 C1.12329862 2.90036151 1.12329862 2.90036151 0 0 Z " fill="#3B765B" transform="translate(182,196)"/>
<path d="M0 0 C0.33 0 0.66 0 1 0 C1 4.62 1 9.24 1 14 C-0.32 14 -1.64 14 -3 14 C-2.67 13.34 -2.34 12.68 -2 12 C-1.34 12 -0.68 12 0 12 C0 8.04 0 4.08 0 0 Z " fill="#5C8E73" transform="translate(224,183)"/>
<path d="M0 0 C1 3 1 3 0 6 C-2.0625 6.6875 -2.0625 6.6875 -4 7 C-3.6875 4.625 -3.6875 4.625 -3 2 C-2.01 1.34 -1.02 0.68 0 0 Z " fill="#58A4C2" transform="translate(100,92)"/>
<path d="M0 0 C-4.44 2.96 -4.44 2.96 -7 4 C-7.99 3.67 -8.98 3.34 -10 3 C-6.46873184 -0.69178035 -5.02635024 -1.19045137 0 0 Z " fill="#5EA796" transform="translate(155,276)"/>
<path d="M0 0 C-2.70188004 1.80125336 -4.93057703 3.00243753 -8 4 C-8.99 3.67 -9.98 3.34 -11 3 C-10 1 -10 1 -8.3125 0.375 C-5.51555886 -0.07855802 -2.82858003 -0.06428591 0 0 Z " fill="#70AC8F" transform="translate(211,255)"/>
<path d="M0 0 C-0.33 0.66 -0.66 1.32 -1 2 C-3.64860427 2.59355614 -6.29197322 2.74209269 -9 3 C-9.33 2.34 -9.66 1.68 -10 1 C-3.375 -1.125 -3.375 -1.125 0 0 Z " fill="#83B28F" transform="translate(277,191)"/>
<path d="M0 0 C0.33 0 0.66 0 1 0 C1 1.65 1 3.3 1 5 C-1.31 5.33 -3.62 5.66 -6 6 C-5.67 5.01 -5.34 4.02 -5 3 C-4.01 2.67 -3.02 2.34 -2 2 C-1.34 2.33 -0.68 2.66 0 3 C0 2.01 0 1.02 0 0 Z " fill="#85B67F" transform="translate(301,166)"/>
<path d="M0 0 C0.98120464 3.05263664 0.98120464 4.94736336 0 8 C-0.66 7.67 -1.32 7.34 -2 7 C-2 6.34 -2 5.68 -2 5 C-2.66 4.67 -3.32 4.34 -4 4 C-3.34 4 -2.68 4 -2 4 C-1.67 3.01 -1.34 2.02 -1 1 C-0.67 0.67 -0.34 0.34 0 0 Z " fill="#07557B" transform="translate(321,80)"/>
<path d="M0 0 C0.66 0 1.32 0 2 0 C2 0.99 2 1.98 2 3 C2.66 3 3.32 3 4 3 C4 3.66 4 4.32 4 5 C2.68 5.33 1.36 5.66 0 6 C-0.38218767 4.34385343 -0.71395102 2.67542976 -1 1 C-0.67 0.67 -0.34 0.34 0 0 Z " fill="#046B8E" transform="translate(16,317)"/>
<path d="M0 0 C-1 3 -1 3 -3.375 4.3125 C-4.24125 4.539375 -5.1075 4.76625 -6 5 C-6.99 4.34 -7.98 3.68 -9 3 C-2.25 0 -2.25 0 0 0 Z " fill="#63A891" transform="translate(117,310)"/>
<path d="M0 0 C1.98 0 3.96 0 6 0 C5.34 1.32 4.68 2.64 4 4 C2.68 3.67 1.36 3.34 0 3 C0 2.01 0 1.02 0 0 Z " fill="#5EA06D" transform="translate(251,266)"/>
<path d="M0 0 C2.97 0.495 2.97 0.495 6 1 C3.01353231 2.99097846 0.40312738 3.94124926 -3 5 C-2.67 4.01 -2.34 3.02 -2 2 C-1.34 2 -0.68 2 0 2 C0 1.34 0 0.68 0 0 Z " fill="#63A38A" transform="translate(178,264)"/>
<path d="M0 0 C1.98 0 3.96 0 6 0 C3.06171403 2.50298434 0.82097239 3.46930939 -3 4 C-3.33 3.34 -3.66 2.68 -4 2 C-2.68 2 -1.36 2 0 2 C0 1.34 0 0.68 0 0 Z " fill="#7DA689" transform="translate(230,245)"/>
<path d="M0 0 C2.31 0 4.62 0 7 0 C4.06171403 2.50298434 1.82097239 3.46930939 -2 4 C-1.34 2.68 -0.68 1.36 0 0 Z " fill="#88B78F" transform="translate(245,239)"/>
<path d="M0 0 C-0.25 1.875 -0.25 1.875 -1 4 C-3.0625 5.25 -3.0625 5.25 -5 6 C-5.66 5.34 -6.32 4.68 -7 4 C-2.25 0 -2.25 0 0 0 Z " fill="#4B9AB6" transform="translate(224,125)"/>
<path d="M0 0 C3.0625 0.25 3.0625 0.25 6 1 C6.33 1.66 6.66 2.32 7 3 C4.03 2.67 1.06 2.34 -2 2 C-1.34 1.34 -0.68 0.68 0 0 Z " fill="#3B906F" transform="translate(95,318)"/>
<path d="M0 0 C-1.32 1.32 -2.64 2.64 -4 4 C-5.32 3.01 -6.64 2.02 -8 1 C-3.375 -1.125 -3.375 -1.125 0 0 Z " fill="#0B7780" transform="translate(71,266)"/>
<path d="M0 0 C0.99 0.66 1.98 1.32 3 2 C3 2.99 3 3.98 3 5 C1.02 5 -0.96 5 -3 5 C-2.67 4.01 -2.34 3.02 -2 2 C-1.34 2 -0.68 2 0 2 C0 1.34 0 0.68 0 0 Z " fill="#4E986A" transform="translate(209,250)"/>
<path d="M0 0 C0.33 0.99 0.66 1.98 1 3 C-0.32 4.32 -1.64 5.64 -3 7 C-3.33 5.68 -3.66 4.36 -4 3 C-2.68 2.01 -1.36 1.02 0 0 Z " fill="#5997AE" transform="translate(85,107)"/>
<path d="M0 0 C0.66 0 1.32 0 2 0 C1.60196439 2.88575819 1.20990931 3.82189513 -1.0625 5.75 C-1.701875 6.1625 -2.34125 6.575 -3 7 C-3.33 6.01 -3.66 5.02 -4 4 C-3.01 4 -2.02 4 -1 4 C-0.67 2.68 -0.34 1.36 0 0 Z " fill="#89B887" transform="translate(303,284)"/>
<path d="M0 0 C0.99 0.99 1.98 1.98 3 3 C0.69 3.66 -1.62 4.32 -4 5 C-4 4.01 -4 3.02 -4 2 C-2.68 1.34 -1.36 0.68 0 0 Z " fill="#549C7F" transform="translate(160,271)"/>
<path d="M0 0 C-2.96687001 1.64826111 -5.65626525 2.44271087 -9 3 C-8.67 2.01 -8.34 1.02 -8 0 C-5.13822943 -1.43088528 -3.06624227 -0.59991697 0 0 Z " fill="#77A887" transform="translate(227,249)"/>
<path d="M0 0 C0.66 0 1.32 0 2 0 C2.1875 2.375 2.1875 2.375 2 5 C1.01 5.66 0.02 6.32 -1 7 C-1.04254356 5.00045254 -1.04080783 2.99958364 -1 1 C-0.67 0.67 -0.34 0.34 0 0 Z " fill="#67A46E" transform="translate(271,240)"/>
<path d="M0 0 C2.475 0.495 2.475 0.495 5 1 C5 1.66 5 2.32 5 3 C6.32 3.33 7.64 3.66 9 4 C8.01 4.33 7.02 4.66 6 5 C2.8125 3.125 2.8125 3.125 0 1 C0 0.67 0 0.34 0 0 Z " fill="#4F93B2" transform="translate(69,195)"/>
<path d="M0 0 C0.66 0 1.32 0 2 0 C2.33 1.65 2.66 3.3 3 5 C1.68 5.99 0.36 6.98 -1 8 C-0.67 5.36 -0.34 2.72 0 0 Z " fill="#3996BF" transform="translate(129,134)"/>
<path d="M0 0 C0.99 0.66 1.98 1.32 3 2 C1.02 3.32 -0.96 4.64 -3 6 C-3 4.68 -3 3.36 -3 2 C-2.01 1.34 -1.02 0.68 0 0 Z " fill="#26728E" transform="translate(216,129)"/>
<path d="M0 0 C1.32 0 2.64 0 4 0 C3.67 0.99 3.34 1.98 3 3 C2.01 3 1.02 3 0 3 C-0.33 3.99 -0.66 4.98 -1 6 C-1.33 5.01 -1.66 4.02 -2 3 C-1.34 2.01 -0.68 1.02 0 0 Z " fill="#537E94" transform="translate(306,76)"/>
<path d="M0 0 C0.99 0.33 1.98 0.66 3 1 C2.01 2.32 1.02 3.64 0 5 C-1.32 4.67 -2.64 4.34 -4 4 C-2.68 2.68 -1.36 1.36 0 0 Z " fill="#076694" transform="translate(286,73)"/>
<path d="M0 0 C0.66 0.33 1.32 0.66 2 1 C1.34 2.32 0.68 3.64 0 5 C-1.65 4.67 -3.3 4.34 -5 4 C-3.35 2.68 -1.7 1.36 0 0 Z " fill="#4A86A7" transform="translate(305,40)"/>
</svg>
